<svg xmlns="http://www.w3.org/2000/svg" width="126.025" height="42.126" viewBox="0 0 126.025 42.126"><defs><style>.a{fill:#a6a6a6;}.b{fill:#fff;}</style></defs><g transform="translate(0 0)"><g transform="translate(0 0)"><path class="a" d="M115.989,0H10.042c-.386,0-.768,0-1.153,0-.322,0-.642.008-.968.013A13.917,13.917,0,0,0,5.81.2a7.019,7.019,0,0,0-2,.66A6.78,6.78,0,0,0,2.1,2.1,6.591,6.591,0,0,0,.863,3.81a6.952,6.952,0,0,0-.658,2A13.683,13.683,0,0,0,.016,7.923c-.01.323-.011.647-.016.97V33.236c.005.327.006.644.016.971A13.683,13.683,0,0,0,.2,36.315a6.938,6.938,0,0,0,.658,2.006,6.538,6.538,0,0,0,1.241,1.7,6.608,6.608,0,0,0,1.7,1.241,7.057,7.057,0,0,0,2,.664,14.17,14.17,0,0,0,2.11.186c.326.007.645.011.968.011.385,0,.767,0,1.153,0H115.989c.379,0,.763,0,1.142,0,.321,0,.65,0,.971-.011a13.985,13.985,0,0,0,2.106-.186,7.166,7.166,0,0,0,2.01-.664,6.611,6.611,0,0,0,1.7-1.241,6.735,6.735,0,0,0,1.244-1.7,6.955,6.955,0,0,0,.652-2.006,14.225,14.225,0,0,0,.2-2.108c0-.327,0-.644,0-.971.008-.383.008-.763.008-1.152V10.043c0-.386,0-.768-.008-1.15,0-.323,0-.647,0-.97a14.224,14.224,0,0,0-.2-2.108,6.97,6.97,0,0,0-.652-2A6.81,6.81,0,0,0,122.218.862a7.127,7.127,0,0,0-2.01-.66A13.737,13.737,0,0,0,118.1.015c-.321-.005-.65-.011-.971-.013-.379,0-.763,0-1.142,0Z" transform="translate(0 0)"/><path d="M8.847,41.158c-.321,0-.634,0-.952-.011a13.362,13.362,0,0,1-1.968-.172A6.2,6.2,0,0,1,4.182,40.4,5.693,5.693,0,0,1,2.71,39.327a5.6,5.6,0,0,1-1.075-1.471,6.026,6.026,0,0,1-.572-1.745,13.073,13.073,0,0,1-.175-1.975c-.007-.222-.015-.962-.015-.962V8.847S.882,8.119.888,7.9a13.028,13.028,0,0,1,.174-1.972,6.061,6.061,0,0,1,.572-1.75A5.659,5.659,0,0,1,2.7,2.71,5.861,5.861,0,0,1,4.181,1.633a6.133,6.133,0,0,1,1.741-.573A13.255,13.255,0,0,1,7.9.888l.95-.013H117.079l.962.013A13.044,13.044,0,0,1,120,1.06a6.254,6.254,0,0,1,1.76.577A5.891,5.891,0,0,1,124.3,4.185a6.07,6.07,0,0,1,.564,1.737,13.688,13.688,0,0,1,.183,1.988c0,.3,0,.619,0,.937.008.395.008.771.008,1.15V32.038c0,.383,0,.756-.008,1.132,0,.342,0,.656,0,.979a13.407,13.407,0,0,1-.18,1.952,6.044,6.044,0,0,1-.569,1.759,5.771,5.771,0,0,1-1.07,1.459,5.7,5.7,0,0,1-1.474,1.077,6.174,6.174,0,0,1-1.757.579,13.209,13.209,0,0,1-1.969.172c-.308.007-.631.011-.945.011l-1.142,0Z" transform="translate(0.046 0.047)"/><g transform="translate(10.502 9.184)"><path class="b" d="M25.555,20.637a5.212,5.212,0,0,1,2.482-4.373,5.335,5.335,0,0,0-4.2-2.272c-1.769-.186-3.483,1.058-4.384,1.058-.919,0-2.306-1.04-3.8-1.009a5.6,5.6,0,0,0-4.711,2.873c-2.037,3.526-.518,8.709,1.434,11.56.976,1.4,2.117,2.955,3.61,2.9,1.461-.061,2.006-.931,3.77-.931,1.747,0,2.259.931,3.782.9,1.567-.025,2.555-1.4,3.5-2.811a11.545,11.545,0,0,0,1.6-3.257A5.036,5.036,0,0,1,25.555,20.637Z" transform="translate(-9.972 -8.441)"/><path class="b" d="M22.21,12.4A5.131,5.131,0,0,0,23.384,8.72a5.221,5.221,0,0,0-3.378,1.748,4.883,4.883,0,0,0-1.2,3.54A4.317,4.317,0,0,0,22.21,12.4Z" transform="translate(-9.503 -8.72)"/><g transform="translate(25.756 9.637)"><path class="b" d="M42.721,27.621H37.736l-1.2,3.535H34.427l4.722-13.078h2.194l4.722,13.078H43.917ZM38.252,25.99H42.2l-1.948-5.737H40.2Z" transform="translate(-34.427 -17.86)"/><path class="b" d="M55.613,26.216c0,2.963-1.586,4.867-3.979,4.867a3.232,3.232,0,0,1-3-1.668h-.045v4.723H46.631V21.448h1.894v1.586h.036A3.382,3.382,0,0,1,51.6,21.348C54.018,21.348,55.613,23.261,55.613,26.216Zm-2.012,0c0-1.93-1-3.2-2.52-3.2-1.5,0-2.5,1.3-2.5,3.2,0,1.921,1.006,3.208,2.5,3.208C52.6,29.423,53.6,28.163,53.6,26.216Z" transform="translate(-33.779 -17.686)"/><path class="b" d="M65.578,26.216c0,2.963-1.586,4.867-3.979,4.867a3.232,3.232,0,0,1-3-1.668h-.045v4.723H56.6V21.448h1.894v1.586h.036a3.382,3.382,0,0,1,3.036-1.686C63.983,21.348,65.578,23.261,65.578,26.216Zm-2.012,0c0-1.93-1-3.2-2.52-3.2-1.5,0-2.5,1.3-2.5,3.2,0,1.921,1.006,3.208,2.5,3.208,1.522,0,2.52-1.26,2.52-3.208Z" transform="translate(-33.249 -17.686)"/><path class="b" d="M71.812,27.523c.145,1.3,1.4,2.148,3.127,2.148,1.65,0,2.837-.852,2.837-2.021,0-1.015-.716-1.623-2.411-2.039L73.669,25.2c-2.4-.58-3.516-1.7-3.516-3.526,0-2.256,1.966-3.806,4.759-3.806,2.763,0,4.658,1.55,4.722,3.806H77.657c-.118-1.305-1.2-2.093-2.774-2.093s-2.656.8-2.656,1.957c0,.925.689,1.469,2.375,1.885l1.441.354c2.683.635,3.8,1.712,3.8,3.625,0,2.447-1.949,3.979-5.049,3.979-2.9,0-4.859-1.5-4.985-3.862Z" transform="translate(-32.547 -17.871)"/><path class="b" d="M83.515,19.3v2.256h1.813v1.55H83.515v5.257c0,.817.363,1.2,1.16,1.2a6.116,6.116,0,0,0,.644-.045v1.541a5.374,5.374,0,0,1-1.087.091c-1.93,0-2.683-.725-2.683-2.574V23.106H80.163v-1.55h1.386V19.3Z" transform="translate(-31.996 -17.795)"/><path class="b" d="M86.065,26.216c0-3,1.767-4.885,4.522-4.885s4.523,1.885,4.523,4.885S93.361,31.1,90.587,31.1,86.065,29.225,86.065,26.216Zm7.051,0c0-2.058-.943-3.273-2.529-3.273s-2.528,1.224-2.528,3.273c0,2.066.942,3.272,2.528,3.272s2.529-1.205,2.529-3.272Z" transform="translate(-31.682 -17.687)"/><path class="b" d="M96.186,21.448h1.867V23.07H98.1a2.274,2.274,0,0,1,2.293-1.723,3.019,3.019,0,0,1,.671.073v1.831a2.736,2.736,0,0,0-.879-.118,1.972,1.972,0,0,0-2.039,2.194v5.656H96.186Z" transform="translate(-31.144 -17.686)"/><path class="b" d="M109.818,28.183c-.263,1.731-1.949,2.919-4.106,2.919-2.774,0-4.5-1.858-4.5-4.84s1.731-4.93,4.413-4.93c2.638,0,4.3,1.812,4.3,4.7V26.7h-6.734v.118a2.483,2.483,0,0,0,2.565,2.7,2.157,2.157,0,0,0,2.2-1.341ZM103.2,25.337h4.767a2.293,2.293,0,0,0-2.339-2.42,2.414,2.414,0,0,0-2.428,2.42Z" transform="translate(-30.877 -17.687)"/></g></g></g><g transform="translate(37.567 8.885)"><path class="b" d="M37.941,8.731A2.78,2.78,0,0,1,40.9,11.854c0,2.008-1.085,3.162-2.957,3.162h-2.27V8.731Zm-1.294,5.4h1.185a1.976,1.976,0,0,0,2.072-2.26,1.981,1.981,0,0,0-2.072-2.247H36.647Z" transform="translate(-35.671 -8.422)"/><path class="b" d="M41.681,12.569a2.247,2.247,0,1,1,4.473,0,2.247,2.247,0,1,1-4.473,0Zm3.51,0c0-1.028-.462-1.629-1.272-1.629s-1.271.6-1.271,1.629.458,1.633,1.271,1.633,1.272-.6,1.272-1.633Z" transform="translate(-35.352 -8.348)"/><path class="b" d="M51.839,14.937h-.971l-.98-3.493h-.074l-.976,3.493h-.962l-1.307-4.742h.949l.85,3.619h.07l.975-3.619h.9l.975,3.619h.074l.845-3.619h.936Z" transform="translate(-35.092 -8.344)"/><path class="b" d="M53.854,10.2h.9v.753h.07a1.42,1.42,0,0,1,1.415-.845,1.542,1.542,0,0,1,1.641,1.764v3.07h-.936V12.107c0-.762-.331-1.141-1.023-1.141a1.088,1.088,0,0,0-1.132,1.2v2.774h-.936Z" transform="translate(-34.704 -8.348)"/><path class="b" d="M59.094,8.437h.936v6.594h-.936Z" transform="translate(-34.426 -8.437)"/><path class="b" d="M61.218,12.569a2.247,2.247,0,1,1,4.473,0,2.247,2.247,0,1,1-4.473,0Zm3.51,0c0-1.028-.462-1.629-1.272-1.629s-1.271.6-1.271,1.629.458,1.633,1.271,1.633,1.272-.6,1.272-1.633Z" transform="translate(-34.314 -8.348)"/><path class="b" d="M66.4,13.6c0-.854.636-1.346,1.764-1.416l1.285-.074V11.7c0-.5-.331-.784-.971-.784-.522,0-.884.192-.988.527h-.906c.1-.815.862-1.337,1.938-1.337,1.189,0,1.859.592,1.859,1.594v3.24h-.9v-.666h-.074a1.6,1.6,0,0,1-1.424.745A1.433,1.433,0,0,1,66.4,13.6Zm3.048-.405v-.4l-1.158.074c-.653.044-.949.266-.949.684s.37.675.879.675A1.118,1.118,0,0,0,69.449,13.2Z" transform="translate(-34.037 -8.348)"/><path class="b" d="M71.348,12.657c0-1.5.77-2.448,1.968-2.448a1.563,1.563,0,0,1,1.454.832h.07v-2.6h.936v6.594h-.9v-.749h-.074a1.646,1.646,0,0,1-1.489.827C72.11,15.109,71.348,14.159,71.348,12.657Zm.967,0c0,1.006.474,1.611,1.267,1.611s1.276-.614,1.276-1.607-.493-1.611-1.276-1.611-1.267.609-1.267,1.607Z" transform="translate(-33.774 -8.437)"/><path class="b" d="M79.231,12.569a2.247,2.247,0,1,1,4.473,0,2.247,2.247,0,1,1-4.473,0Zm3.51,0c0-1.028-.462-1.629-1.272-1.629s-1.271.6-1.271,1.629.458,1.633,1.271,1.633S82.741,13.6,82.741,12.569Z" transform="translate(-33.356 -8.348)"/><path class="b" d="M84.669,10.2h.9v.753h.07a1.42,1.42,0,0,1,1.415-.845A1.542,1.542,0,0,1,88.7,11.872v3.07h-.936V12.107c0-.762-.331-1.141-1.023-1.141a1.088,1.088,0,0,0-1.132,1.2v2.774h-.936Z" transform="translate(-33.066 -8.348)"/><path class="b" d="M93.6,9.074v1.2h1.027v.788H93.6V13.5c0,.5.2.714.671.714a3.124,3.124,0,0,0,.357-.022v.78a3.071,3.071,0,0,1-.509.048c-1.041,0-1.455-.366-1.455-1.28V11.064h-.753v-.788h.753v-1.2Z" transform="translate(-32.681 -8.403)"/><path class="b" d="M95.7,8.437h.928V11.05h.074a1.459,1.459,0,0,1,1.446-.85,1.562,1.562,0,0,1,1.633,1.768v3.062h-.937V12.2c0-.757-.353-1.141-1.014-1.141a1.108,1.108,0,0,0-1.194,1.2v2.77H95.7Z" transform="translate(-32.48 -8.437)"/><path class="b" d="M104.977,13.661a1.925,1.925,0,0,1-2.055,1.372,2.154,2.154,0,0,1-2.191-2.448,2.187,2.187,0,0,1,2.187-2.478c1.32,0,2.116.9,2.116,2.391v.327h-3.349v.052a1.253,1.253,0,0,0,1.263,1.359,1.137,1.137,0,0,0,1.128-.575Zm-3.292-1.528h2.4a1.144,1.144,0,0,0-1.167-1.229,1.213,1.213,0,0,0-1.228,1.229Z" transform="translate(-32.214 -8.348)"/></g></g></svg>