<svg id="f1a2b101-0122-4227-8d4d-b88ee59add4f" data-name="Layer 10" xmlns="http://www.w3.org/2000/svg" viewBox="0 0 192 192"><defs><style>.becee7e4-82db-44e2-b6d7-24babdbbfe34{fill:#3d1412;}.ba47f9a2-dd65-4861-8129-b991ce863e6f{fill:#fff;}</style></defs><title>Icons dashboard</title><path class="becee7e4-82db-44e2-b6d7-24babdbbfe34" d="M142.32,20.65H50.25A16.89,16.89,0,0,0,33.41,37.49V154.64a16.89,16.89,0,0,0,16.84,16.84h92.07a16.89,16.89,0,0,0,16.84-16.84V37.49A16.89,16.89,0,0,0,142.32,20.65ZM76,75.27a7.36,7.36,0,1,1-7.43,7.36A7.47,7.47,0,0,1,76,75.27Zm37.79,61.91H74c-3.72,0-6.34-2.44-6.35-5.89s2.62-5.9,6.33-5.9h39.77c3.72,0,6.35,2.44,6.35,5.89S117.52,137.18,113.8,137.18Zm.2-22.71c-6.73,0-13.45,0-20.18,0s-13.45,0-20.18,0a5.78,5.78,0,0,1-5.78-4.53,5.69,5.69,0,0,1,3-6.54,7.06,7.06,0,0,1,3-.69q20.1-.06,40.21,0a5.89,5.89,0,1,1,0,11.78Zm14.69-33.62c-4.36,0-8.78.23-13.07-.36A20.3,20.3,0,0,1,98.36,60.84c0-1.72,0-3.44,0-5.16h0c0-1.77,0-3.54,0-5.3a5.88,5.88,0,1,1,11.76-.17c.09,3.19,0,6.38,0,9.57,0,5.52,3.72,9.25,9.22,9.28,3.09,0,6.19,0,9.28,0a5.9,5.9,0,1,1,.06,11.78Z"/><path class="ba47f9a2-dd65-4861-8129-b991ce863e6f" d="M73.64,114.47c6.73,0,13.46,0,20.18,0s13.45,0,20.18,0c-6.73,0-13.45,0-20.18,0S80.37,114.49,73.64,114.47Z"/></svg>