<svg id="af902f2b-0ca5-411a-8fc7-8ed514635954" data-name="Layer 10" xmlns="http://www.w3.org/2000/svg" viewBox="0 0 192 192"><defs><style>.fdbd62ca-3954-449d-90ca-afdf6ebaa3c3{fill:#3d1412;}</style></defs><title>Icons dashboard</title><g id="a74e6ece-9954-4b73-a00b-a078591d98a3" data-name="g16mCi.tif"><g id="bc88713d-c37d-48d5-aab9-65ad994b0e00" data-name="Group 1231"><path id="b75427fd-d41b-42ce-95e9-efa72db5517c" data-name="Path 990" class="fdbd62ca-3954-449d-90ca-afdf6ebaa3c3" d="M106.4,172H86.32c-5.46-1.53-8.86-6.57-8-11.79.23-3.16,0-6.36,0-9.63a65.57,65.57,0,0,1-23.1-12.11,2.66,2.66,0,0,0-2.24,0c-3.33,1.66-6.54,3.52-9.87,5.2a10.31,10.31,0,0,1-13.45-3.06c-3.38-5.14-6.35-10.5-9.51-15.76v-3.44a12.87,12.87,0,0,1,7.42-7.77c2.51-1.16,4.85-2.63,7.33-3.86,1.18-.59,1.38-1.21,1.27-2.5-.47-5.58-.79-11.19-.9-16.79-.05-2.47.57-5.49.57-7.28-1-1.9-4.33-2.81-6.73-4a15.15,15.15,0,0,1-8.95-8.39V67c3-4.88,5.88-9.79,8.94-14.63A10.56,10.56,0,0,1,43.89,48.7c3,1.54,6,3.11,8.9,4.79a2.35,2.35,0,0,0,3.14-.19l0-.06a59.38,59.38,0,0,1,20.63-11.1,2.14,2.14,0,0,0,1.89-2.42c-.1-3.35-.08-6.71,0-10.06-.14-5.09,4.17-9.34,9.66-9.52s10.93-.2,16.37.05c5.33,0,9.61,4.09,9.56,9,0,.15,0,.3,0,.45,0,3.35.07,6.7,0,10.06a2.16,2.16,0,0,0,1.9,2.44,58.64,58.64,0,0,1,20.64,11.08,2.42,2.42,0,0,0,3.21.31c3.07-1.76,6.18-3.47,9.36-5.05a10.6,10.6,0,0,1,13.92,3.24l.24.39c2.51,3.93,5,7.89,7.37,11.88a9,9,0,0,1-3.25,13c-.2.12-.42.23-.63.34q-4.52,2.52-9.14,4.9A2.1,2.1,0,0,0,156.25,85a48.68,48.68,0,0,1,0,22.36,2,2,0,0,0,1.33,2.5c3,1.54,6,3.16,8.91,4.78,5.08,2.29,7.19,8,4.73,12.66a9.31,9.31,0,0,1-.72,1.16q-3.28,5.45-6.72,10.82c-2.27,4.85-8.35,7.07-13.57,5a9.92,9.92,0,0,1-2.08-1.12c-3.35-1.77-6.69-3.58-10.06-5.37a64.49,64.49,0,0,1-22.65,12.51,2.59,2.59,0,0,0-1.28,2,49.44,49.44,0,0,0,0,7.6C115.11,165.07,111.85,170.25,106.4,172ZM71.53,96.15a24.8,24.8,0,1,0,49.6-.05A24.73,24.73,0,0,0,96.49,71.28h0A24.79,24.79,0,0,0,71.53,96v.2Z"/></g></g></svg>