<svg id="Layer_1" data-name="Layer 1" xmlns="http://www.w3.org/2000/svg" xmlns:xlink="http://www.w3.org/1999/xlink" viewBox="0 0 269.56 168.29"><defs><style>.cls-1{fill:none;}.cls-2{fill:#f8983a;}.cls-3{fill:#88173c;}.cls-4{clip-path:url(#clip-path);}.cls-5{fill:#cfebeb;}.cls-6{fill:#f6973b;}.cls-7{fill:#87163c;}.cls-8{fill:#296281;}.cls-9{fill:#3c1513;}</style><clipPath id="clip-path"><rect class="cls-1" x="-389.35" y="164.93" width="362.08" height="748.44"/></clipPath></defs><path class="cls-2" d="M116.2,164a19,19,0,0,1-13.33-4.89c-8.33-7.62-8.27-21.54-8.26-22.38l.16-94a2.85,2.85,0,0,1,3-2.68h0a2.84,2.84,0,0,1,3,2.69l-.16,94.05v0c0,.12-.1,12.49,6.56,18.57a12.84,12.84,0,0,0,9.09,3.28,2.69,2.69,0,1,1,0,5.36Z"/><path class="cls-2" d="M97.74,143a2.84,2.84,0,0,1-3-2.68V46.64c0-1-.13-15.12,8.22-22.81A18.82,18.82,0,0,1,116.2,19a2.84,2.84,0,0,1,3,2.68,2.84,2.84,0,0,1-3,2.68,12.61,12.61,0,0,0-9,3.25c-1.89,1.74-4.42,5.16-5.75,11.62a36.87,36.87,0,0,0-.78,7.37v93.71A2.84,2.84,0,0,1,97.74,143Z"/><path class="cls-2" d="M136.1,143a2.84,2.84,0,0,1-3-2.68V46.56a37.26,37.26,0,0,0-.77-7.37c-.74-3.57-2.33-8.47-5.76-11.62a12.61,12.61,0,0,0-9-3.25,2.84,2.84,0,0,1-3-2.68,2.84,2.84,0,0,1,3-2.68,18.87,18.87,0,0,1,13.22,4.87c8.35,7.69,8.23,21.85,8.21,22.81v93.63A2.84,2.84,0,0,1,136.1,143Z"/><path class="cls-2" d="M117.64,164a2.69,2.69,0,1,1,0-5.36,12.61,12.61,0,0,0,9-3.25c1.89-1.73,4.43-5.16,5.76-11.61a37.39,37.39,0,0,0,.77-7.38V42.71a3,3,0,0,1,5.94,0v93.63c0,1,.14,15.12-8.21,22.81A18.87,18.87,0,0,1,117.64,164Z"/><path class="cls-2" d="M151.19,162a16.41,16.41,0,0,1-11.55-4.21c-2.87-2.65-4.84-6.43-5.85-11.23a30.62,30.62,0,0,1-.66-6.31,2.85,2.85,0,0,1,3-2.62h.07a2.82,2.82,0,0,1,2.9,2.74c0,.17-.12,9.14,4.83,13.69a10.25,10.25,0,0,0,7.29,2.59,2.69,2.69,0,1,1,0,5.35Z"/><path class="cls-2" d="M230,164a18.9,18.9,0,0,1-13.22-4.85c-8.35-7.66-8.23-21.78-8.21-22.73V43.15a3,3,0,0,1,5.94,0v93.37a37.07,37.07,0,0,0,.77,7.35c.74,3.55,2.33,8.44,5.75,11.57a12.68,12.68,0,0,0,9,3.24,2.69,2.69,0,1,1,0,5.34Z"/><path class="cls-2" d="M211.5,143a2.83,2.83,0,0,1-3-2.66V47.06c0-1-.14-15.06,8.21-22.73A18.9,18.9,0,0,1,230,19.48a2.84,2.84,0,0,1,3,2.67,2.84,2.84,0,0,1-3,2.67,12.68,12.68,0,0,0-9,3.24c-1.89,1.73-4.42,5.14-5.75,11.57a37.07,37.07,0,0,0-.77,7.35v93.38A2.83,2.83,0,0,1,211.5,143Z"/><path class="cls-2" d="M249.86,143a2.83,2.83,0,0,1-3-2.66V47a37.58,37.58,0,0,0-.78-7.35c-.73-3.55-2.33-8.44-5.75-11.57a12.64,12.64,0,0,0-9-3.24,2.84,2.84,0,0,1-3-2.67,2.84,2.84,0,0,1,3-2.67,18.87,18.87,0,0,1,13.21,4.85c8.35,7.67,8.23,21.78,8.21,22.73v93.3A2.82,2.82,0,0,1,249.86,143Z"/><path class="cls-2" d="M231.4,164a2.69,2.69,0,1,1,0-5.34,12.64,12.64,0,0,0,9-3.24c1.89-1.73,4.42-5.14,5.75-11.57a37.58,37.58,0,0,0,.78-7.35V43.15a3,3,0,0,1,5.93,0v93.29c0,.95.14,15.07-8.21,22.73A18.87,18.87,0,0,1,231.4,164Z"/><path class="cls-2" d="M264.94,162a16.46,16.46,0,0,1-11.54-4.19c-2.88-2.65-4.85-6.41-5.85-11.19a29,29,0,0,1-.66-6.3,2.83,2.83,0,0,1,3-2.6h.07a2.8,2.8,0,0,1,2.9,2.72c0,.09-.14,9.09,4.84,13.65a10.27,10.27,0,0,0,7.28,2.57,2.69,2.69,0,1,1,0,5.34Z"/><path class="cls-2" d="M207.14,161.87c-7.11,0-12.41-1.84-15.72-5.46a15.49,15.49,0,0,1-3.82-9.61,1.09,1.09,0,0,1,0-.18c-.35-34.57-.26-55.47-.16-79.66,0-12.79.11-27.27.11-45.3a3,3,0,0,1,5.94,0c0,18-.06,32.53-.11,45.32-.1,24.15-.19,45,.16,79.5A10.41,10.41,0,0,0,196,153c2.14,2.33,5.89,3.52,11.16,3.52a2.71,2.71,0,1,1,0,5.39Z"/><path class="cls-2" d="M180,162.63c-7,0-12.07-1.24-15.41-3.79a10.35,10.35,0,0,1-4.12-7.36,1.64,1.64,0,0,1,0-.23c-.35-24.42-.26-40-.16-57.95.06-9.67.11-19.67.11-32.22a3,3,0,0,1,5.94,0c0,12.56-.06,22.57-.11,32.24-.1,17.94-.19,33.44.16,57.75a5.4,5.4,0,0,0,2.14,3.91c2.13,1.63,6.1,2.5,11.47,2.5a2.6,2.6,0,1,1,0,5.15Z"/><circle class="cls-3" cx="164.14" cy="30.29" r="11.39" transform="translate(96.95 183.08) rotate(-76.72)"/><path class="cls-2" d="M82.46,166.47a24.42,24.42,0,0,1-2.87-.18c-4.46-.53-10.2-2.24-17.07-5.09-12.07-5-26.14-2.57-37.44-.62a90.09,90.09,0,0,1-13.2,1.69c-3.08,0-7.47-.3-10-3.79-1.47-2-1.13-5.2,1.21-11.41,1.66-4.43,4.4-10.46,8.13-17.93C17.55,116.42,27.09,99,38.77,78.72c14-24.35,29.79-50.34,39.06-64.92-6.45.38-15.85-1-28.6-4.28-7.72-2-18.61-3.52-26.71.22-4.65,2.15-6.18,5-6.24,5.15a.11.11,0,0,1,0,0l-5.36-2.57c.33-.68,8.34-16.52,39.75-8.51C64,7.17,73.3,8.47,79,7.74a12.11,12.11,0,0,0,3.3-.83c1.49-2.23,2.57-3.76,3.14-4.42a3.12,3.12,0,0,1,4-1,3.07,3.07,0,0,1,1.47,3.6,10.47,10.47,0,0,1-4.47,6.3C79.34,22.23,63,48.65,45.69,78.61c-11.45,19.77-21,37.06-27.57,50-3.8,7.47-6.7,13.61-8.59,18.24-2.28,5.57-2.6,7.73-2.63,8.43,2.21,2.05,9.81.74,17.17-.53,12-2.09,27.06-4.68,40.73,1,9.41,3.91,14.69,4.78,17.45,4.82,2.38,0,3.19-.5,3.38-.66a3,3,0,0,1,5.77,1.35,5.89,5.89,0,0,1-3.06,4A12,12,0,0,1,82.46,166.47Zm3.07-6.17h0Zm0,0Zm0,0Z"/><circle class="cls-3" cx="54.22" cy="128.18" r="11.39" transform="translate(-44.92 30.51) rotate(-22.5)"/><circle class="cls-3" cx="44.48" cy="30.58" r="11.39"/><g class="cls-4"><rect class="cls-1" x="-563.42" y="138.53" width="651.93" height="558.2"/><polygon class="cls-5" points="-1.22 182.93 22.65 160.32 46.53 182.93 -1.22 182.93"/><polygon class="cls-5" points="60.77 182.93 50.63 182.93 22.65 155.36 -6.09 182.93 -15.46 182.93 22.61 145.85 22.65 145.9 22.7 145.85 60.77 182.93"/><polygon class="cls-6" points="59.45 145.85 50.08 145.85 88.15 182.93 88.19 182.89 88.24 182.93 88.51 182.67 88.51 173.11 88.19 173.42 59.45 145.85"/><polygon class="cls-7" points="88.19 168.46 88.51 168.16 88.51 145.85 64.32 145.85 88.19 168.46"/><polygon class="cls-8" points="22.65 145.9 22.61 145.85 -15.46 182.93 -6.09 182.93 22.65 155.36 50.63 182.93 60.77 182.93 22.7 145.85 22.65 145.9"/><polygon class="cls-9" points="-1.22 182.93 46.53 182.93 22.65 160.32 -1.22 182.93"/></g></svg>