<svg xmlns="http://www.w3.org/2000/svg" xmlns:xlink="http://www.w3.org/1999/xlink" width="141" height="42.126" viewBox="0 0 141 42.126"><defs><style>.a{fill:#a6a6a6;}.b,.c,.j{fill:#fff;}.b{stroke:#fff;stroke-miterlimit:10;stroke-width:0.2px;}.d{fill:url(#a);}.e{fill:url(#b);}.f{fill:url(#c);}.g{fill:url(#d);}.h{opacity:0.2;}.h,.i,.j{isolation:isolate;}.i{opacity:0.12;}.j{opacity:0.25;}</style><linearGradient id="a" x1="0.915" y1="6.614" x2="-0.382" y2="5.945" gradientUnits="objectBoundingBox"><stop offset="0" stop-color="#00a0ff"/><stop offset="0.01" stop-color="#00a1ff"/><stop offset="0.26" stop-color="#00beff"/><stop offset="0.51" stop-color="#00d2ff"/><stop offset="0.76" stop-color="#00dfff"/><stop offset="1" stop-color="#00e3ff"/></linearGradient><linearGradient id="b" x1="1.077" y1="17.089" x2="-1.306" y2="17.089" gradientUnits="objectBoundingBox"><stop offset="0" stop-color="#ffe000"/><stop offset="0.41" stop-color="#ffbd00"/><stop offset="0.78" stop-color="orange"/><stop offset="1" stop-color="#ff9c00"/></linearGradient><linearGradient id="c" x1="0.863" y1="10.855" x2="-0.502" y2="9.087" gradientUnits="objectBoundingBox"><stop offset="0" stop-color="#ff3a44"/><stop offset="1" stop-color="#c31162"/></linearGradient><linearGradient id="d" x1="-0.188" y1="13.576" x2="0.421" y2="12.786" gradientUnits="objectBoundingBox"><stop offset="0" stop-color="#32a071"/><stop offset="0.07" stop-color="#2da771"/><stop offset="0.48" stop-color="#15cf74"/><stop offset="0.8" stop-color="#06e775"/><stop offset="1" stop-color="#00f076"/></linearGradient></defs><rect width="141" height="42" rx="5" transform="translate(0 0.126)"/><path class="a" d="M145.657,10.835a4.383,4.383,0,0,1,4.383,4.383V46.523a4.383,4.383,0,0,1-4.383,4.383H15.218a4.383,4.383,0,0,1-4.383-4.383V15.218a4.383,4.383,0,0,1,4.383-4.383H145.657m0-.835H15.218A5.218,5.218,0,0,0,10,15.218V46.523a5.218,5.218,0,0,0,5.218,5.218H145.657a5.218,5.218,0,0,0,5.218-5.218V15.218A5.218,5.218,0,0,0,145.657,10Z" transform="translate(-10 -10)"/><path class="b" d="M57.684,20.387a2.838,2.838,0,0,1-.783,2.087,3.026,3.026,0,0,1-2.3.918,3.131,3.131,0,0,1-2.306-.939,3.271,3.271,0,0,1,3.59-5.332,2.651,2.651,0,0,1,.981.7l-.553.553a2.087,2.087,0,0,0-1.711-.751,2.5,2.5,0,1,0,1.753,4.31,2,2,0,0,0,.522-1.273H54.606v-.751h3.037a3.913,3.913,0,0,1,.042.48Z" transform="translate(-8.201 -9.701)"/><path class="b" d="M62.151,17.772H59.334v1.983H61.9v.751H59.334v1.983h2.817v.772H58.52V17h3.631Z" transform="translate(-7.889 -9.695)"/><path class="b" d="M65.387,23.261h-.8V17.772H62.83V17h4.351v.772H65.387Z" transform="translate(-7.701 -9.695)"/><path class="b" d="M69.94,23.261V17h.8v6.261Z" transform="translate(-7.392 -9.695)"/><path class="b" d="M74.237,23.261h-.8V17.772H71.68V17h4.3v.772H74.237Z" transform="translate(-7.316 -9.695)"/><path class="b" d="M83.84,22.453a3.245,3.245,0,0,1-4.591,0,3.381,3.381,0,0,1,0-4.633,3.057,3.057,0,0,1,2.3-.95,3.131,3.131,0,0,1,2.3.95,3.2,3.2,0,0,1,.918,2.317A3.13,3.13,0,0,1,83.84,22.453Zm-4-.522a2.39,2.39,0,0,0,3.4,0,2.651,2.651,0,0,0,0-3.59,2.39,2.39,0,0,0-3.4,0,2.651,2.651,0,0,0,0,3.59Z" transform="translate(-7.027 -9.701)"/><path class="b" d="M85.58,23.261V17h.97L89.6,21.873h0V17h.8v6.261h-.835l-3.183-5.1h0v5.1Z" transform="translate(-6.711 -9.695)"/><path class="c" d="M79.327,31.955a4.445,4.445,0,1,0,4.456,4.435,4.372,4.372,0,0,0-4.456-4.435Zm0,7.127a2.692,2.692,0,1,1,2.5-2.692,2.567,2.567,0,0,1-2.5,2.692ZM69.6,31.955a4.445,4.445,0,1,0,4.456,4.435A4.372,4.372,0,0,0,69.6,31.955Zm0,7.127a2.692,2.692,0,1,1,2.5-2.692,2.567,2.567,0,0,1-2.5,2.692Zm-11.562-5.76V35.2h4.508A3.934,3.934,0,0,1,61.5,37.569a4.612,4.612,0,0,1-3.485,1.377,5.009,5.009,0,0,1,0-10.018,4.842,4.842,0,0,1,3.423,1.346l1.325-1.325a6.574,6.574,0,0,0-4.727-1.9,6.9,6.9,0,1,0,0,13.785A6.334,6.334,0,0,0,62.849,38.9a6.261,6.261,0,0,0,1.628-4.414,6.542,6.542,0,0,0-.094-1.169Zm47.282,1.461a4.1,4.1,0,0,0-7.972,1.607,4.414,4.414,0,0,0,8.1,2.473l-1.513-1.044a2.515,2.515,0,0,1-2.181,1.221,2.244,2.244,0,0,1-2.15-1.346l5.938-2.452Zm-6.052,1.482a2.442,2.442,0,0,1,2.327-2.6,1.711,1.711,0,0,1,1.638.95Zm-4.821,4.3H96.4V27.52H94.447Zm-3.193-7.618h-.073A3.068,3.068,0,0,0,88.843,31.9a4.445,4.445,0,0,0,0,8.88,3.005,3.005,0,0,0,2.337-1.044h.073v.637c0,1.7-.908,2.609-2.369,2.609a2.463,2.463,0,0,1-2.244-1.576l-1.69.7a4.174,4.174,0,0,0,3.934,2.63c2.285,0,4.174-1.346,4.174-4.623v-7.9H91.254ZM89.01,39.082a2.692,2.692,0,0,1,0-5.374A2.494,2.494,0,0,1,91.39,36.39a2.484,2.484,0,0,1-2.379,2.692ZM114.462,27.52h-4.675V40.564h1.951V35.617h2.724a4.059,4.059,0,1,0,0-8.1Zm0,6.261h-2.724V29.336H114.5a2.233,2.233,0,0,1,0,4.466ZM126.5,31.913a3.642,3.642,0,0,0-3.475,1.993l1.722.72a1.857,1.857,0,0,1,1.784-.95,1.878,1.878,0,0,1,2.087,1.68v.125a4.362,4.362,0,0,0-2.035-.5c-1.857,0-3.757,1.044-3.757,2.943a3.016,3.016,0,0,0,3.245,2.87,2.765,2.765,0,0,0,2.484-1.273h.063v1.044H130.5V35.544c0-2.285-1.732-3.611-3.955-3.611Zm-.24,7.148c-.637,0-1.524-.323-1.524-1.106,0-1.044,1.106-1.4,2.087-1.4a3.464,3.464,0,0,1,1.774.438,2.358,2.358,0,0,1-2.3,2.087Zm11.082-6.845-2.233,5.656h-.063l-2.317-5.656h-2.087l3.475,7.91-1.983,4.393h2.035l5.343-12.3Zm-17.531,8.348h1.941V27.52h-1.941Z" transform="translate(-8.221 -9.258)"/><path class="d" d="M20.461,17.543A2.087,2.087,0,0,0,19.97,19V42.087a2.024,2.024,0,0,0,.49,1.461l.073.083L33.463,30.7v-.313L20.534,17.47Z" transform="translate(-9.566 -9.675)"/><path class="e" d="M37.178,34.652,32.9,30.343V30.03l4.278-4.31.094.063,5.124,2.9c1.461.824,1.461,2.181,0,3.016l-5.1,2.9Z" transform="translate(-9.003 -9.316)"/><path class="f" d="M37.846,34.4l-4.4-4.4-13,13a1.691,1.691,0,0,0,2.16.073L37.846,34.4" transform="translate(-9.546 -9.13)"/><path class="g" d="M37.846,26.156,22.6,17.5a1.68,1.68,0,0,0-2.16.063l13,13Z" transform="translate(-9.546 -9.69)"/><path class="h" d="M37.721,34.13,22.6,42.739a1.732,1.732,0,0,1-2.087,0h0l-.073.073h0l.073.083h0a1.732,1.732,0,0,0,2.087,0l15.246-8.672Z" transform="translate(-9.546 -8.95)"/><path class="i" d="M20.459,42.381A2.087,2.087,0,0,1,20,40.91v.157a2.024,2.024,0,0,0,.49,1.461l.073-.073Z" transform="translate(-9.565 -8.655)"/><path class="i" d="M42.218,31.357,37,34.31l.094.094,5.124-2.9A1.826,1.826,0,0,0,43.324,30h0a1.941,1.941,0,0,1-1.106,1.357Z" transform="translate(-8.825 -9.13)"/><path class="j" d="M22.621,17.641,42.959,29.2a1.941,1.941,0,0,1,1.106,1.357h0a1.826,1.826,0,0,0-1.106-1.5L22.621,17.495c-1.45-.835-2.651-.146-2.651,1.524v.157C20,17.505,21.17,16.817,22.621,17.641Z" transform="translate(-9.566 -9.689)"/></svg>