<svg id="f59be168-438a-4d04-818c-b744f91a6aff" data-name="Layer 10" xmlns="http://www.w3.org/2000/svg" xmlns:xlink="http://www.w3.org/1999/xlink" viewBox="0 0 192 192"><defs><style>.b6284082-8d78-4079-9dd2-c2e5cffd995b,.bb2d5775-1d6f-49eb-93f0-3875e3b01d49{fill:none;}.b0fc1afd-a2db-4603-b7f7-3e0470b341eb{fill:#3d1412;}.bda9309c-6969-4602-aa01-9b89e67cb88f{clip-path:url(#adc081ed-e911-482d-8aa9-b6599e03b336);}.a65a6398-0b0b-452d-9ee9-1fe1488fb049{clip-path:url(#bb6f58b4-b49f-4db8-9e11-a2304881c5b7);}.bb2d5775-1d6f-49eb-93f0-3875e3b01d49{stroke:#3d1412;stroke-miterlimit:10;stroke-width:4px;}</style><clipPath id="adc081ed-e911-482d-8aa9-b6599e03b336"><rect class="b6284082-8d78-4079-9dd2-c2e5cffd995b" x="25.68" y="18.48" width="140.87" height="154.58"/></clipPath><clipPath id="bb6f58b4-b49f-4db8-9e11-a2304881c5b7"><rect class="b6284082-8d78-4079-9dd2-c2e5cffd995b" x="26.87" y="19.67" width="138.49" height="152"/></clipPath></defs><title>Icons dashboard</title><path class="b6284082-8d78-4079-9dd2-c2e5cffd995b" d="M115.58,63c-13.12,0-28.88-.37-41.73-.72C86.7,62.64,102.46,63,115.58,63Z"/><path class="b6284082-8d78-4079-9dd2-c2e5cffd995b" d="M127.41,143.41a15.42,15.42,0,0,1-6,5.87,15.08,15.08,0,0,1-6.88,1.86l-1.88.05c2.16,9.32,6.34,15.83,15.42,19a33.68,33.68,0,0,0,4.2,1.14c1.1.23,2.2.4,3.3.52h7.36a30.55,30.55,0,0,0,12.59-4.23c4.44-2.7,8.43-6.67,8.43-12.25,0-12.54-6.47-24.67-19.82-24.67a14.76,14.76,0,0,0-9.35,3.61A32.36,32.36,0,0,0,127.41,143.41Z"/><path class="b6284082-8d78-4079-9dd2-c2e5cffd995b" d="M112.66,151.19h0l1.88-.05a15.08,15.08,0,0,0,6.88-1.86,15.33,15.33,0,0,0,6-5.87,32.58,32.58,0,0,1,7.39-9.11,14.76,14.76,0,0,1,9.35-3.61H110.27C110.74,138.51,111.31,145.4,112.66,151.19Z"/><path class="b6284082-8d78-4079-9dd2-c2e5cffd995b" d="M127.4,143.41a15.33,15.33,0,0,1-6,5.87,15.42,15.42,0,0,0,6-5.87,32.36,32.36,0,0,1,7.38-9.11A32.58,32.58,0,0,0,127.4,143.41Z"/><path class="b6284082-8d78-4079-9dd2-c2e5cffd995b" d="M73.85,62.29c12.85.35,28.61.7,41.73.72,2.31,0,4.54,0,6.66,0a6.5,6.5,0,0,0,5.5-9.89,6.64,6.64,0,0,0-.65-.88c-2.1-2.4-3.58-6-3.58-11.74,0-16.12,13.1-19.65,18.42-20.42H48.07c-7.68,0-16,8-16,23.32S49.48,61.51,49.48,61.51s6.4.24,15.8.53h0Z"/><path class="b6284082-8d78-4079-9dd2-c2e5cffd995b" d="M165.58,41.2V19.84H144.39C146.77,19.88,165.52,20.82,165.58,41.2Z"/><path class="b6284082-8d78-4079-9dd2-c2e5cffd995b" d="M121.42,149.28a15.08,15.08,0,0,1-6.88,1.86l-1.88.05h0l1.88-.05A15.08,15.08,0,0,0,121.42,149.28Z"/><path class="b6284082-8d78-4079-9dd2-c2e5cffd995b" d="M25.9,18.66V173.24H166.77V18.66Zm1.18,153.18v-152h138.5v152Z"/><path class="b6284082-8d78-4079-9dd2-c2e5cffd995b" d="M110.16,129.07c0,.54.07,1.08.11,1.62h33.87a14.76,14.76,0,0,0-9.35,3.61,14.76,14.76,0,0,1,9.35-3.61c13.35,0,19.82,12.13,19.82,24.67,0,5.58-4,9.55-8.43,12.25a30.55,30.55,0,0,1-12.59,4.23h-7.36c-1.1-.12-2.2-.29-3.3-.52a33.68,33.68,0,0,1-4.2-1.14,33.68,33.68,0,0,0,4.2,1.14,31.41,31.41,0,0,0,3.3.52H54.35c-46.78,0-20.57-61.17-14.11-71.53,17-27.17,25.05-38.22,25.05-38.22V62h0c-9.4-.29-15.8-.53-15.8-.53S32.1,58.76,32.1,43.38s8.29-23.32,16-23.32h93.86c-5.32.77-18.42,4.3-18.42,20.42,0,5.73,1.48,9.34,3.58,11.74a6.64,6.64,0,0,1,.65.88,6.64,6.64,0,0,0-.65-.88c-2.1-2.4-3.58-6-3.58-11.74,0-16.12,13.1-19.65,18.42-20.42a20.68,20.68,0,0,1,2.17-.22h-117v152h138.5V41.37C165.46,63.22,108.55,102,110.16,129.07Z"/><path class="b0fc1afd-a2db-4603-b7f7-3e0470b341eb" d="M122.24,63c-2.12,0-4.35,0-6.66,0,2.31,0,4.55,0,6.67,0a6.49,6.49,0,0,0,5.49-9.89A6.5,6.5,0,0,1,122.24,63Z"/><path class="b0fc1afd-a2db-4603-b7f7-3e0470b341eb" d="M65.29,62h0l8.56.25Z"/><path class="b0fc1afd-a2db-4603-b7f7-3e0470b341eb" d="M123.51,40.48c0,5.73,1.48,9.34,3.58,11.74a6.64,6.64,0,0,1,.65.88A6.49,6.49,0,0,1,122.25,63c-2.12,0-4.36,0-6.67,0-13.12,0-28.88-.37-41.73-.72L65.29,62v.05s-8.06,11-25.05,38.22c-6.46,10.36-32.67,71.53,14.11,71.53h81.23a31.41,31.41,0,0,1-3.3-.52,33.68,33.68,0,0,1-4.2-1.14c-9.09-3.16-13.27-9.67-15.42-19h0c-1.35-5.79-1.92-12.67-2.39-20.5h0c0-.54-.08-1.08-.11-1.62-1.61-27.07,55.3-65.85,55.42-87.7V41.2c-.06-20.38-18.81-21.32-21.19-21.36h-.29a20.68,20.68,0,0,0-2.17.22C136.61,20.83,123.51,24.36,123.51,40.48ZM44.32,112.07l.11-7.59H98.32l.12,7.59Zm56.24,21.51H76.43v-6h24.13Zm16-48.35-53.69,0-.21-7h53.9Z"/><path class="b0fc1afd-a2db-4603-b7f7-3e0470b341eb" d="M112.66,151.19h0c2.15,9.32,6.33,15.83,15.42,19C119,167,114.82,160.51,112.66,151.19Z"/><path class="b0fc1afd-a2db-4603-b7f7-3e0470b341eb" d="M112.66,151.19h0c-1.35-5.79-1.92-12.68-2.39-20.5h0C110.74,138.52,111.31,145.4,112.66,151.19Z"/><g class="bda9309c-6969-4602-aa01-9b89e67cb88f"><g class="a65a6398-0b0b-452d-9ee9-1fe1488fb049"><g class="a65a6398-0b0b-452d-9ee9-1fe1488fb049"><path class="bb2d5775-1d6f-49eb-93f0-3875e3b01d49" d="M143.92,130.51c13.35,0,19.83,12.13,19.83,24.67,0,5.58-4,9.55-8.44,12.25a30.5,30.5,0,0,1-12.59,4.23h-7.36a31.82,31.82,0,0,1-3.3-.52c-12-2.49-17.16-9.48-19.62-20.12l1.88-.05a15.27,15.27,0,0,0,12.86-7.74c3.3-5.76,8.91-12.72,16.74-12.72"/><path class="bb2d5775-1d6f-49eb-93f0-3875e3b01d49" d="M110.05,130.51h33.87c-7.83,0-13.44,7-16.73,12.72A15.3,15.3,0,0,1,114.32,151l-1.88.05c-1.35-5.8-1.92-12.68-2.39-20.51"/><path class="bb2d5775-1d6f-49eb-93f0-3875e3b01d49" d="M47.85,19.88h93.86c-5.32.77-18.42,4.3-18.42,20.42,0,5.74,1.48,9.35,3.58,11.74A6.5,6.5,0,0,1,122,62.82c-17,.14-41.2-.48-57-1-9.41-.29-15.81-.52-15.81-.52S31.88,58.58,31.88,43.21s8.29-23.33,16-23.33"/></g></g></g></svg>