<?xml version="1.0" encoding="utf-8"?>
<!-- Generator: Adobe Illustrator 24.1.1, SVG Export Plug-In . SVG Version: 6.00 Build 0)  -->
<svg version="1.1" id="Layer_1" xmlns="http://www.w3.org/2000/svg" xmlns:xlink="http://www.w3.org/1999/xlink" x="0px" y="0px"
	 viewBox="0 0 3999.3 56.9" style="enable-background:new 0 0 3999.3 56.9;" xml:space="preserve">
<style type="text/css">
	.st0{fill:#CFEBEB;}
	.st1{fill:#F6973B;}
	.st2{fill:#87163C;}
	.st3{fill:#296281;}
	.st4{fill:#3C1513;}
</style>
<g>
	<polygon class="st0" points="2861.8,56.9 2898.5,22.2 2935.1,56.9 	"/>
	<polygon class="st0" points="2636.4,0 2599.8,34.7 2563.2,0 	"/>
	<polygon class="st0" points="2434.9,0 2398.3,34.7 2361.7,0 	"/>
	<polygon class="st0" points="2398.3,42.3 2441.2,0 2456.8,0 2398.4,56.9 2398.3,56.8 2398.2,56.9 2339.8,0 2354.2,0 	"/>
	<polygon class="st0" points="2555.7,0 2599.8,42.3 2642.7,0 2658.2,0 2599.8,56.9 2599.8,56.8 2599.7,56.9 2541.3,0 	"/>
	<polygon class="st0" points="2299.2,0.1 2299.3,0 2357.7,56.9 2342.1,56.9 2299.2,14.6 2255.1,56.9 2240.8,56.9 2299.2,0 	"/>
	<polygon class="st0" points="2440.8,56.9 2499.2,0 2499.2,0.1 2499.3,0 2557.7,56.9 2542.2,56.9 2499.2,14.6 2455.2,56.9 	"/>
	<polygon class="st0" points="2640.4,56.9 2698.8,0 2698.8,0.1 2698.9,0 2757.3,56.9 2741.8,56.9 2698.8,14.6 2654.8,56.9 	"/>
	<polygon class="st0" points="2797.5,56.8 2797.4,56.9 2739.1,0 2753.4,0 2797.5,42.3 2840.4,0 2856,0 2797.6,56.9 	"/>
	<polygon class="st0" points="2797.5,34.7 2760.9,0 2834.1,0 	"/>
	<polygon class="st0" points="2235.3,0 2198.7,34.7 2162.1,0 	"/>
	<polygon class="st0" points="2198.7,42.3 2241.6,0 2257.2,0 2198.8,56.9 2198.7,56.8 2198.6,56.9 2140.2,0 2154.6,0 	"/>
	<polygon class="st0" points="2262.6,56.9 2299.2,22.2 2335.8,56.9 	"/>
	<polygon class="st0" points="2462.6,56.9 2499.2,22.2 2535.9,56.9 	"/>
	<polygon class="st0" points="2662.2,56.9 2698.8,22.2 2735.5,56.9 	"/>
	<polygon class="st0" points="2956.9,56.9 2941.4,56.9 2898.5,14.6 2854.4,56.9 2840,56.9 2898.4,0 2898.5,0.1 2898.5,0 	"/>
	<polygon class="st0" points="2048.8,56.9 2034.4,56.9 2092.8,0 2092.9,0.1 2093,0 2151.3,56.9 2135.8,56.9 2092.9,14.6 	"/>
	<polygon class="st0" points="2056.3,56.9 2092.9,22.2 2129.5,56.9 	"/>
	<polygon class="st1" points="2001,56.8 2001,56.9 2059.4,0 2043.9,0 2001,42.3 1999.1,40.5 1999.1,55.1 2000.9,56.9 	"/>
	<polygon class="st2" points="2037.6,0 1999.1,0 1999.1,32.9 2001,34.7 	"/>
	<polygon class="st1" points="2140.2,0 2198.6,56.9 2198.7,56.8 2198.8,56.9 2257.2,0 2241.6,0 2198.7,42.3 2154.6,0 	"/>
	<polygon class="st2" points="2198.7,34.7 2235.3,0 2162.1,0 	"/>
	<polygon class="st3" points="2135.8,56.9 2151.3,56.9 2093,0 2092.9,0.1 2092.8,0 2034.4,56.9 2048.8,56.9 2092.9,14.6 	"/>
	<polygon class="st4" points="2092.9,22.2 2056.3,56.9 2129.5,56.9 	"/>
	<polygon class="st1" points="2599.8,56.8 2599.8,56.9 2658.2,0 2642.7,0 2599.8,42.3 2555.7,0 2541.3,0 2599.7,56.9 	"/>
	<polygon class="st2" points="2636.4,0 2563.2,0 2599.8,34.7 	"/>
	<polygon class="st1" points="2840.4,0 2797.5,42.3 2753.4,0 2739.1,0 2797.4,56.9 2797.5,56.8 2797.6,56.9 2856,0 	"/>
	<polygon class="st2" points="2797.5,34.7 2834.1,0 2760.9,0 	"/>
	<polygon class="st1" points="2954.9,0 2940.5,0 2998.9,56.9 2999,56.8 2999.1,56.9 2999.1,56.9 2999.1,42.2 2999,42.3 	"/>
	<polygon class="st2" points="2999,34.7 2999.1,34.6 2999.1,0 2962.4,0 	"/>
	<polygon class="st1" points="2339.8,0 2398.2,56.9 2398.3,56.8 2398.4,56.9 2456.8,0 2441.2,0 2398.3,42.3 2354.2,0 	"/>
	<polygon class="st2" points="2398.3,34.7 2434.9,0 2361.7,0 	"/>
	<polygon class="st3" points="2255.1,56.9 2299.2,14.6 2342.1,56.9 2357.7,56.9 2299.3,0 2299.2,0.1 2299.2,0 2240.8,56.9 	"/>
	<polygon class="st4" points="2299.2,22.2 2262.6,56.9 2335.8,56.9 	"/>
	<polygon class="st3" points="2499.2,14.6 2542.2,56.9 2557.7,56.9 2499.3,0 2499.2,0.1 2499.2,0 2440.8,56.9 2455.2,56.9 	"/>
	<polygon class="st4" points="2499.2,22.2 2462.6,56.9 2535.9,56.9 	"/>
	<polygon class="st3" points="2698.8,14.6 2741.8,56.9 2757.3,56.9 2698.9,0 2698.8,0.1 2698.8,0 2640.4,56.9 2654.8,56.9 	"/>
	<polygon class="st4" points="2698.8,22.2 2662.2,56.9 2735.5,56.9 	"/>
	<polygon class="st3" points="2898.5,0.1 2898.4,0 2840,56.9 2854.4,56.9 2898.5,14.6 2941.4,56.9 2956.9,56.9 2898.5,0 	"/>
	<polygon class="st4" points="2861.8,56.9 2935.1,56.9 2898.5,22.2 	"/>
	<polygon class="st0" points="3862.1,56.9 3898.7,22.2 3935.3,56.9 	"/>
	<polygon class="st0" points="3636.7,0 3600,34.7 3563.4,0 	"/>
	<polygon class="st0" points="3435.2,0 3398.6,34.7 3361.9,0 	"/>
	<polygon class="st0" points="3398.6,42.3 3441.5,0 3457,0 3398.6,56.9 3398.6,56.8 3398.5,56.9 3340.1,0 3354.5,0 	"/>
	<polygon class="st0" points="3556,0 3600,42.3 3643,0 3658.5,0 3600.1,56.9 3600,56.8 3600,56.9 3541.6,0 	"/>
	<polygon class="st0" points="3299.5,0.1 3299.6,0 3358,56.9 3342.4,56.9 3299.5,14.6 3255.4,56.9 3241,56.9 3299.4,0 	"/>
	<polygon class="st0" points="3441,56.9 3499.4,0 3499.5,0.1 3499.6,0 3558,56.9 3542.4,56.9 3499.5,14.6 3455.4,56.9 	"/>
	<polygon class="st0" points="3640.7,56.9 3699,0 3699.1,0.1 3699.2,0 3757.6,56.9 3742,56.9 3699.1,14.6 3655,56.9 	"/>
	<polygon class="st0" points="3797.8,56.8 3797.7,56.9 3739.3,0 3753.7,0 3797.8,42.3 3840.7,0 3856.2,0 3797.9,56.9 	"/>
	<polygon class="st0" points="3797.8,34.7 3761.2,0 3834.4,0 	"/>
	<polygon class="st0" points="3235.6,0 3199,34.7 3162.3,0 	"/>
	<polygon class="st0" points="3199,42.3 3241.9,0 3257.4,0 3199,56.9 3199,56.8 3198.9,56.9 3140.5,0 3154.9,0 	"/>
	<polygon class="st0" points="3262.9,56.9 3299.5,22.2 3336.1,56.9 	"/>
	<polygon class="st0" points="3462.9,56.9 3499.5,22.2 3536.1,56.9 	"/>
	<polygon class="st0" points="3662.5,56.9 3699.1,22.2 3735.7,56.9 	"/>
	<polygon class="st0" points="3957.2,56.9 3941.6,56.9 3898.7,14.6 3854.6,56.9 3840.3,56.9 3898.6,0 3898.7,0.1 3898.8,0 	"/>
	<polygon class="st0" points="3049.1,56.9 3034.7,56.9 3093.1,0 3093.1,0.1 3093.2,0 3151.6,56.9 3136.1,56.9 3093.1,14.6 	"/>
	<polygon class="st0" points="3056.5,56.9 3093.1,22.2 3129.8,56.9 	"/>
	<polygon class="st1" points="3001.2,56.8 3001.3,56.9 3059.7,0 3044.1,0 3001.2,42.3 2999.3,40.5 2999.3,55.1 3001.2,56.9 	"/>
	<polygon class="st2" points="3037.8,0 2999.3,0 2999.3,32.9 3001.2,34.7 	"/>
	<polygon class="st1" points="3140.5,0 3198.9,56.9 3199,56.8 3199,56.9 3257.4,0 3241.9,0 3199,42.3 3154.9,0 	"/>
	<polygon class="st2" points="3199,34.7 3235.6,0 3162.3,0 	"/>
	<polygon class="st3" points="3136.1,56.9 3151.6,56.9 3093.2,0 3093.1,0.1 3093.1,0 3034.7,56.9 3049.1,56.9 3093.1,14.6 	"/>
	<polygon class="st4" points="3093.1,22.2 3056.5,56.9 3129.8,56.9 	"/>
	<polygon class="st1" points="3600,56.8 3600.1,56.9 3658.5,0 3643,0 3600,42.3 3556,0 3541.6,0 3600,56.9 	"/>
	<polygon class="st2" points="3636.7,0 3563.4,0 3600,34.7 	"/>
	<polygon class="st1" points="3840.7,0 3797.8,42.3 3753.7,0 3739.3,0 3797.7,56.9 3797.8,56.8 3797.9,56.9 3856.2,0 	"/>
	<polygon class="st2" points="3797.8,34.7 3834.4,0 3761.2,0 	"/>
	<polygon class="st1" points="3955.2,0 3940.8,0 3999.2,56.9 3999.2,56.8 3999.3,56.9 3999.3,56.9 3999.3,42.2 3999.2,42.3 	"/>
	<polygon class="st2" points="3999.2,34.7 3999.3,34.6 3999.3,0 3962.6,0 	"/>
	<polygon class="st1" points="3340.1,0 3398.5,56.9 3398.6,56.8 3398.6,56.9 3457,0 3441.5,0 3398.6,42.3 3354.5,0 	"/>
	<polygon class="st2" points="3398.6,34.7 3435.2,0 3361.9,0 	"/>
	<polygon class="st3" points="3255.4,56.9 3299.5,14.6 3342.4,56.9 3358,56.9 3299.6,0 3299.5,0.1 3299.4,0 3241,56.9 	"/>
	<polygon class="st4" points="3299.5,22.2 3262.9,56.9 3336.1,56.9 	"/>
	<polygon class="st3" points="3499.5,14.6 3542.4,56.9 3558,56.9 3499.6,0 3499.5,0.1 3499.4,0 3441,56.9 3455.4,56.9 	"/>
	<polygon class="st4" points="3499.5,22.2 3462.9,56.9 3536.1,56.9 	"/>
	<polygon class="st3" points="3699.1,14.6 3742,56.9 3757.6,56.9 3699.2,0 3699.1,0.1 3699,0 3640.7,56.9 3655,56.9 	"/>
	<polygon class="st4" points="3699.1,22.2 3662.5,56.9 3735.7,56.9 	"/>
	<polygon class="st3" points="3898.7,0.1 3898.6,0 3840.3,56.9 3854.6,56.9 3898.7,14.6 3941.6,56.9 3957.2,56.9 3898.8,0 	"/>
	<polygon class="st4" points="3862.1,56.9 3935.3,56.9 3898.7,22.2 	"/>
	<polygon class="st0" points="862.7,56.9 899.4,22.2 936,56.9 	"/>
	<polygon class="st0" points="637.3,0 600.7,34.7 564.1,0 	"/>
	<polygon class="st0" points="435.8,0 399.2,34.7 362.6,0 	"/>
	<polygon class="st0" points="399.2,42.3 442.1,0 457.7,0 399.3,56.9 399.2,56.8 399.1,56.9 340.8,0 355.1,0 	"/>
	<polygon class="st0" points="556.6,0 600.7,42.3 643.6,0 659.1,0 600.8,56.9 600.7,56.8 600.6,56.9 542.2,0 	"/>
	<polygon class="st0" points="300.1,0.1 300.2,0 358.6,56.9 343.1,56.9 300.1,14.6 256.1,56.9 241.7,56.9 300.1,0 	"/>
	<polygon class="st0" points="441.7,56.9 500.1,0 500.2,0.1 500.2,0 558.6,56.9 543.1,56.9 500.2,14.6 456.1,56.9 	"/>
	<polygon class="st0" points="641.3,56.9 699.7,0 699.8,0.1 699.8,0 758.2,56.9 742.7,56.9 699.8,14.6 655.7,56.9 	"/>
	<polygon class="st0" points="798.4,56.8 798.4,56.9 740,0 754.3,0 798.4,42.3 841.3,0 856.9,0 798.5,56.9 	"/>
	<polygon class="st0" points="798.4,34.7 761.8,0 835.1,0 	"/>
	<polygon class="st0" points="236.2,0 199.6,34.7 163,0 	"/>
	<polygon class="st0" points="199.6,42.3 242.5,0 258.1,0 199.7,56.9 199.6,56.8 199.5,56.9 141.2,0 155.5,0 	"/>
	<polygon class="st0" points="263.5,56.9 300.1,22.2 336.8,56.9 	"/>
	<polygon class="st0" points="463.5,56.9 500.2,22.2 536.8,56.9 	"/>
	<polygon class="st0" points="663.1,56.9 699.8,22.2 736.4,56.9 	"/>
	<polygon class="st0" points="957.8,56.9 942.3,56.9 899.4,14.6 855.3,56.9 840.9,56.9 899.3,0 899.4,0.1 899.4,0 	"/>
	<polygon class="st0" points="49.7,56.9 35.3,56.9 93.7,0 93.8,0.1 93.9,0 152.3,56.9 136.7,56.9 93.8,14.6 	"/>
	<polygon class="st0" points="57.2,56.9 93.8,22.2 130.4,56.9 	"/>
	<polygon class="st1" points="1.9,56.8 1.9,56.9 60.3,0 44.8,0 1.9,42.3 0,40.5 0,55.1 1.8,56.9 	"/>
	<polygon class="st2" points="38.5,0 0,0 0,32.9 1.9,34.7 	"/>
	<polygon class="st1" points="141.2,0 199.5,56.9 199.6,56.8 199.7,56.9 258.1,0 242.5,0 199.6,42.3 155.5,0 	"/>
	<polygon class="st2" points="199.6,34.7 236.2,0 163,0 	"/>
	<polygon class="st3" points="136.7,56.9 152.3,56.9 93.9,0 93.8,0.1 93.7,0 35.3,56.9 49.7,56.9 93.8,14.6 	"/>
	<polygon class="st4" points="93.8,22.2 57.2,56.9 130.4,56.9 	"/>
	<polygon class="st1" points="600.7,56.8 600.8,56.9 659.1,0 643.6,0 600.7,42.3 556.6,0 542.2,0 600.6,56.9 	"/>
	<polygon class="st2" points="637.3,0 564.1,0 600.7,34.7 	"/>
	<polygon class="st1" points="841.3,0 798.4,42.3 754.3,0 740,0 798.4,56.9 798.4,56.8 798.5,56.9 856.9,0 	"/>
	<polygon class="st2" points="798.4,34.7 835.1,0 761.8,0 	"/>
	<polygon class="st1" points="955.8,0 941.4,0 999.8,56.9 999.9,56.8 1000,56.9 1000,56.9 1000,42.2 999.9,42.3 	"/>
	<polygon class="st2" points="999.9,34.7 1000,34.6 1000,0 963.3,0 	"/>
	<polygon class="st1" points="340.8,0 399.1,56.9 399.2,56.8 399.3,56.9 457.7,0 442.1,0 399.2,42.3 355.1,0 	"/>
	<polygon class="st2" points="399.2,34.7 435.8,0 362.6,0 	"/>
	<polygon class="st3" points="256.1,56.9 300.1,14.6 343.1,56.9 358.6,56.9 300.2,0 300.1,0.1 300.1,0 241.7,56.9 	"/>
	<polygon class="st4" points="300.1,22.2 263.5,56.9 336.8,56.9 	"/>
	<polygon class="st3" points="500.2,14.6 543.1,56.9 558.6,56.9 500.2,0 500.2,0.1 500.1,0 441.7,56.9 456.1,56.9 	"/>
	<polygon class="st4" points="500.2,22.2 463.5,56.9 536.8,56.9 	"/>
	<polygon class="st3" points="699.8,14.6 742.7,56.9 758.2,56.9 699.8,0 699.8,0.1 699.7,0 641.3,56.9 655.7,56.9 	"/>
	<polygon class="st4" points="699.8,22.2 663.1,56.9 736.4,56.9 	"/>
	<polygon class="st3" points="899.4,0.1 899.3,0 840.9,56.9 855.3,56.9 899.4,14.6 942.3,56.9 957.8,56.9 899.4,0 	"/>
	<polygon class="st4" points="862.7,56.9 936,56.9 899.4,22.2 	"/>
	<polygon class="st0" points="1863,56.9 1899.6,22.2 1936.3,56.9 	"/>
	<polygon class="st0" points="1637.6,0 1601,34.7 1564.3,0 	"/>
	<polygon class="st0" points="1436.1,0 1399.5,34.7 1362.9,0 	"/>
	<polygon class="st0" points="1399.5,42.3 1442.4,0 1457.9,0 1399.6,56.9 1399.5,56.8 1399.4,56.9 1341,0 1355.4,0 	"/>
	<polygon class="st0" points="1556.9,0 1601,42.3 1643.9,0 1659.4,0 1601,56.9 1601,56.8 1600.9,56.9 1542.5,0 	"/>
	<polygon class="st0" points="1300.4,0.1 1300.5,0 1358.9,56.9 1343.3,56.9 1300.4,14.6 1256.3,56.9 1242,56.9 1300.3,0 	"/>
	<polygon class="st0" points="1442,56.9 1500.4,0 1500.4,0.1 1500.5,0 1558.9,56.9 1543.3,56.9 1500.4,14.6 1456.3,56.9 	"/>
	<polygon class="st0" points="1641.6,56.9 1700,0 1700,0.1 1700.1,0 1758.5,56.9 1742.9,56.9 1700,14.6 1655.9,56.9 	"/>
	<polygon class="st0" points="1798.7,56.8 1798.6,56.9 1740.2,0 1754.6,0 1798.7,42.3 1841.6,0 1857.2,0 1798.8,56.9 	"/>
	<polygon class="st0" points="1798.7,34.7 1762.1,0 1835.3,0 	"/>
	<polygon class="st0" points="1236.5,0 1199.9,34.7 1163.3,0 	"/>
	<polygon class="st0" points="1199.9,42.3 1242.8,0 1258.3,0 1200,56.9 1199.9,56.8 1199.8,56.9 1141.4,0 1155.8,0 	"/>
	<polygon class="st0" points="1263.8,56.9 1300.4,22.2 1337,56.9 	"/>
	<polygon class="st0" points="1463.8,56.9 1500.4,22.2 1537,56.9 	"/>
	<polygon class="st0" points="1663.4,56.9 1700,22.2 1736.7,56.9 	"/>
	<polygon class="st0" points="1958.1,56.9 1942.5,56.9 1899.6,14.6 1855.5,56.9 1841.2,56.9 1899.6,0 1899.6,0.1 1899.7,0 	"/>
	<polygon class="st0" points="1050,56.9 1035.6,56.9 1094,0 1094.1,0.1 1094.1,0 1152.5,56.9 1137,56.9 1094.1,14.6 	"/>
	<polygon class="st0" points="1057.4,56.9 1094.1,22.2 1130.7,56.9 	"/>
	<polygon class="st1" points="1002.1,56.8 1002.2,56.9 1060.6,0 1045.1,0 1002.1,42.3 1000.3,40.5 1000.3,55.1 1002.1,56.9 	"/>
	<polygon class="st2" points="1038.8,0 1000.3,0 1000.3,32.9 1002.1,34.7 	"/>
	<polygon class="st1" points="1141.4,0 1199.8,56.9 1199.9,56.8 1200,56.9 1258.3,0 1242.8,0 1199.9,42.3 1155.8,0 	"/>
	<polygon class="st2" points="1199.9,34.7 1236.5,0 1163.3,0 	"/>
	<polygon class="st3" points="1137,56.9 1152.5,56.9 1094.1,0 1094.1,0.1 1094,0 1035.6,56.9 1050,56.9 1094.1,14.6 	"/>
	<polygon class="st4" points="1094.1,22.2 1057.4,56.9 1130.7,56.9 	"/>
	<polygon class="st1" points="1601,56.8 1601,56.9 1659.4,0 1643.9,0 1601,42.3 1556.9,0 1542.5,0 1600.9,56.9 	"/>
	<polygon class="st2" points="1637.6,0 1564.3,0 1601,34.7 	"/>
	<polygon class="st1" points="1841.6,0 1798.7,42.3 1754.6,0 1740.2,0 1798.6,56.9 1798.7,56.8 1798.8,56.9 1857.2,0 	"/>
	<polygon class="st2" points="1798.7,34.7 1835.3,0 1762.1,0 	"/>
	<polygon class="st1" points="1956.1,0 1941.7,0 2000.1,56.9 2000.2,56.8 2000.2,56.9 2000.3,56.9 2000.3,42.2 2000.2,42.3 	"/>
	<polygon class="st2" points="2000.2,34.7 2000.3,34.6 2000.3,0 1963.5,0 	"/>
	<polygon class="st1" points="1341,0 1399.4,56.9 1399.5,56.8 1399.6,56.9 1457.9,0 1442.4,0 1399.5,42.3 1355.4,0 	"/>
	<polygon class="st2" points="1399.5,34.7 1436.1,0 1362.9,0 	"/>
	<polygon class="st3" points="1256.3,56.9 1300.4,14.6 1343.3,56.9 1358.9,56.9 1300.5,0 1300.4,0.1 1300.3,0 1242,56.9 	"/>
	<polygon class="st4" points="1300.4,22.2 1263.8,56.9 1337,56.9 	"/>
	<polygon class="st3" points="1500.4,14.6 1543.3,56.9 1558.9,56.9 1500.5,0 1500.4,0.1 1500.4,0 1442,56.9 1456.3,56.9 	"/>
	<polygon class="st4" points="1500.4,22.2 1463.8,56.9 1537,56.9 	"/>
	<polygon class="st3" points="1700,14.6 1742.9,56.9 1758.5,56.9 1700.1,0 1700,0.1 1700,0 1641.6,56.9 1655.9,56.9 	"/>
	<polygon class="st4" points="1700,22.2 1663.4,56.9 1736.7,56.9 	"/>
	<polygon class="st3" points="1899.6,0.1 1899.6,0 1841.2,56.9 1855.5,56.9 1899.6,14.6 1942.5,56.9 1958.1,56.9 1899.7,0 	"/>
	<polygon class="st4" points="1863,56.9 1936.3,56.9 1899.6,22.2 	"/>
</g>
</svg>
