<svg xmlns="http://www.w3.org/2000/svg" width="55" height="36.514" viewBox="0 0 55 36.514"><defs><style>.a{fill:#3d1412;}</style></defs><path class="a" d="M205.248,199.15a6.108,6.108,0,1,0,6.108,6.108A6.108,6.108,0,0,0,205.248,199.15Z" transform="translate(-177.748 -187)"/><path class="a" d="M10.132,86.635a1.99,1.99,0,0,0-2.817,0,25.03,25.03,0,0,0,0,35.343,1.992,1.992,0,0,0,2.817-2.813,21.042,21.042,0,0,1,0-29.714A1.991,1.991,0,0,0,10.132,86.635Z" transform="translate(-0.011 -86.051)"/><path class="a" d="M109.694,147.154a1.991,1.991,0,0,0-2.816,0,15.811,15.811,0,0,0,0,22.335,1.992,1.992,0,1,0,2.816-2.817,11.823,11.823,0,0,1,0-16.7A1.992,1.992,0,0,0,109.694,147.154Z" transform="translate(-91.276 -140.069)"/><path class="a" d="M415.75,86.639a1.992,1.992,0,1,0-2.817,2.816,21.042,21.042,0,0,1,0,29.714,1.992,1.992,0,1,0,2.817,2.816,25.03,25.03,0,0,0,0-35.343Z" transform="translate(-368.054 -86.055)"/><path class="a" d="M335.658,147.2a1.992,1.992,0,0,0,0,2.817,11.834,11.834,0,0,1,0,16.7,1.995,1.995,0,0,0,2.817,2.825,15.816,15.816,0,0,0,0-22.335A1.993,1.993,0,0,0,335.658,147.2Z" transform="translate(-299.077 -140.112)"/></svg>