<svg xmlns="http://www.w3.org/2000/svg" xmlns:xlink="http://www.w3.org/1999/xlink" viewBox="0 0 634.83 595.03"><defs><style>.cls-1{fill:#f8992b;}.cls-2{fill:#3c1513;}.cls-3{fill:#296281;}.cls-4{fill:url(#linear-gradient);}.cls-5{fill:url(#linear-gradient-2);}.cls-6{fill:#934336;}.cls-7{fill:#fff;}.cls-8{fill:#010101;}.cls-9{fill:#2c1512;}.cls-10{fill:#2a4580;}.cls-11{fill:url(#linear-gradient-3);}.cls-12{fill:url(#linear-gradient-4);}.cls-13{fill:url(#linear-gradient-5);}.cls-14{fill:#3b1619;}.cls-15{fill:url(#linear-gradient-6);}.cls-16{fill:url(#linear-gradient-7);}.cls-17{fill:url(#linear-gradient-8);}.cls-18{fill:#f6973b;}.cls-19{fill:#87163c;}</style><linearGradient id="linear-gradient" x1="317.46" y1="427.34" x2="317.46" y2="388.82" gradientUnits="userSpaceOnUse"><stop offset="0.56" stop-color="#296281"/><stop offset="1" stop-color="#2a4580"/></linearGradient><linearGradient id="linear-gradient-2" x1="317.41" y1="351.13" x2="317.41" y2="387.3" gradientUnits="userSpaceOnUse"><stop offset="0" stop-color="#7b362a"/><stop offset="0.81" stop-color="#934336"/></linearGradient><linearGradient id="linear-gradient-3" x1="351.36" y1="311.18" x2="351.36" y2="314.52" gradientUnits="userSpaceOnUse"><stop offset="0.14" stop-color="#181519"/><stop offset="0.74" stop-color="#3b1619"/></linearGradient><linearGradient id="linear-gradient-4" x1="351.36" y1="311.19" x2="351.36" y2="311.19" xlink:href="#linear-gradient-3"/><linearGradient id="linear-gradient-5" x1="351.36" y1="311.18" x2="351.36" y2="311.19" xlink:href="#linear-gradient-3"/><linearGradient id="linear-gradient-6" x1="-9232.24" y1="311.18" x2="-9232.24" y2="314.52" gradientTransform="matrix(-1, 0, 0, 1, -8948.34, 0)" xlink:href="#linear-gradient-3"/><linearGradient id="linear-gradient-7" x1="317.72" y1="311.19" x2="317.72" y2="331.42" gradientUnits="userSpaceOnUse"><stop offset="0" stop-color="#5c242a"/><stop offset="1" stop-color="#823e3f"/></linearGradient><linearGradient id="linear-gradient-8" x1="317.71" y1="318.34" x2="317.71" y2="304.02" gradientUnits="userSpaceOnUse"><stop offset="0" stop-color="#5c242a"/><stop offset="0.98" stop-color="#823e3f"/></linearGradient></defs><title>Asset 1</title><g id="Layer_2" data-name="Layer 2"><g id="Layer_1-2" data-name="Layer 1"><circle class="cls-1" cx="325.88" cy="355.46" r="239.57"/><path class="cls-2" d="M480.72,284.84l-139-57.12,1.43-11.61-14.83,6.09-14.83-6.09-6.37,14.81L176,284.84s-40.6,87.4,65.79,92.5c37.1,1.78,127.76,3.33,164.79.49C500.67,370.6,480.72,284.84,480.72,284.84Z"/><path class="cls-3" d="M407.3,432.13c-43.75-11.18-56.9-40.88-56.9-40.88-15.79,7.33-50.26,7.33-66,0,0,0-13.15,29.7-56.9,40.88-48.82,12.48-46.82,45.28-35.73,110.88q1.29,7.62,2.48,14.36a249.14,249.14,0,0,0,244.41,10.71c1.36-7.43,2.83-15.76,4.41-25.07C454.12,477.41,456.12,444.61,407.3,432.13Z"/><path class="cls-4" d="M365.11,410.3c-5.32-7.16-5.78-6.7-13.28-21.48l-2.14,1.08a76.24,76.24,0,0,1-23.78,7.53H309a76.24,76.24,0,0,1-23.78-7.53l-2.13-1.08c-7.51,14.78-8,14.32-13.28,21.48-1.93,2.59,24,13,27.08,14,3.79,1.17,12.39,4,20.54,2.79,0,0,0,0,0,0s0,0,0,0c8.16,1.2,16.75-1.62,20.54-2.79C341.1,423.3,367,412.89,365.11,410.3Z"/><path class="cls-3" d="M342.79,372.45c-7.75-2.12-42.78-2.12-50.53,0,0,0-18.09,4.55-10.56,15.9a16,16,0,0,0,10.14,6.73c6.86,1.39,19.83,3.08,25.88,3.08,5.16,0,18.29-1.74,25.46-3.13a15.8,15.8,0,0,0,10.18-6.68C360.89,377,342.79,372.45,342.79,372.45Z"/><path class="cls-5" d="M347.14,351.13l-20.62,6.54a38.9,38.9,0,0,1-18.39.06l-20.45-6.6c9,12.68,7.31,18.37,5.33,24.94a5.87,5.87,0,0,0,3.88,7.3c7.69,2.39,15.3,3.93,20.52,3.93s12.83-1.54,20.52-3.93a5.87,5.87,0,0,0,3.89-7.3C339.84,369.5,338.11,363.81,347.14,351.13Z"/><path class="cls-6" d="M178.19,203.44l5.17,38.09a134.12,134.12,0,0,0,33.91,72.77c8.57,9.33,18.68,17.61,29.94,21.94,36,13.85,62.83,24.24,70.48,24.26h0c7.65,0,34.48-10.41,70.5-24.26,11.26-4.33,21.37-12.61,29.94-21.94a134.12,134.12,0,0,0,33.91-72.77l5.17-38.09C457.24,117.78,178.19,117.78,178.19,203.44Z"/><path class="cls-7" d="M358.19,251.78s30,5.6,40-7.3c0,0-4.52-14.55-15.14-12.7s-15.4,1.38-18,4.31S353.64,247,358.19,251.78Z"/><path class="cls-8" d="M358.19,251.78a1.47,1.47,0,0,1-2.88.33c-1.94-7.23,8.65-22.52,24-22.44,18.17-.08,16.21,14.35,22.42,13.3a.65.65,0,0,1,.38,1.22,7.25,7.25,0,0,1-3.88.29c-1.79-.2-2.84-2.87-4.44-5-5.67-7.42-17-7.73-25.3-3.33-4.66,2.48-9.65,6-10.15,13.2C358.24,250.5,358.21,251.21,358.19,251.78Z"/><path class="cls-8" d="M384.61,241.13c0,4.7-3.93,7.28-8.63,7.28s-8.39-2.58-8.39-7.28a8.51,8.51,0,0,1,17,0Z"/><path class="cls-7" d="M274.61,251.78s-30,5.6-40-7.3c0,0,4.51-14.55,15.14-12.7s15.4,1.38,18,4.31S279.16,247,274.61,251.78Z"/><path class="cls-8" d="M274.61,251.78a1.47,1.47,0,0,0,2.88.33c1.94-7.23-8.65-22.52-24-22.44-18.17-.08-16.21,14.35-22.42,13.3a.65.65,0,0,0-.39,1.22,7.28,7.28,0,0,0,3.89.29c1.78-.2,2.84-2.87,4.44-5,5.66-7.42,17-7.73,25.3-3.33,4.66,2.48,9.64,6,10.15,13.2C274.56,250.5,274.59,251.21,274.61,251.78Z"/><path class="cls-8" d="M248.19,241.13c0,4.7,3.93,7.28,8.62,7.28s8.4-2.58,8.4-7.28a8.51,8.51,0,0,0-17,0Z"/><path class="cls-9" d="M226.21,224.16c-.66,1.45.47,2.93,1.82,2.09,6.42-4,10.69-11.26,30.4-6.95,19.53,4.28,29,14.73,29,3.39C287.49,212,236.75,200.86,226.21,224.16Z"/><path class="cls-9" d="M409.22,224.16c.66,1.45-.48,2.93-1.83,2.09-6.41-4-10.69-11.26-30.4-6.95-19.52,4.28-29,14.73-29,3.39C347.94,212,398.67,200.86,409.22,224.16Z"/><path class="cls-10" d="M230.65,489c-6.82,12.72-39.3,72.41,9.7,91.24Z"/><path class="cls-3" d="M231.35,488.5s-39.43,78,15,93.55Z"/><path class="cls-10" d="M409.68,493.12c6.82,12.72,39.29,72.41-9.71,91.24Z"/><path class="cls-3" d="M409,492.65s39.43,78-15,93.56Z"/><path class="cls-9" d="M301,284.1s17.85,11.15,33.46,0C334.44,284.1,321.89,289.68,301,284.1Z"/><polygon class="cls-11" points="351.36 311.18 351.36 311.18 351.36 311.18 351.36 311.18"/><polygon class="cls-12" points="351.36 311.19 351.36 311.19 351.36 311.19 351.36 311.19"/><polygon class="cls-13" points="351.36 311.18 351.36 311.19 351.36 311.19 351.36 311.18"/><polygon class="cls-14" points="351.36 311.18 351.36 311.18 351.36 311.18 351.36 311.18"/><polygon class="cls-14" points="351.36 311.19 351.36 311.19 351.36 311.19 351.36 311.19 351.36 311.19"/><polygon class="cls-14" points="351.36 311.18 351.36 311.19 351.36 311.18 351.36 311.18"/><polygon class="cls-14" points="351.36 311.18 351.36 311.19 351.36 311.19 351.36 311.19 351.36 311.19 351.36 311.18 351.36 311.18"/><polygon class="cls-15" points="283.89 311.18 283.89 311.18 283.89 311.18 283.89 311.18"/><polygon class="cls-14" points="283.89 311.18 283.89 311.18 283.89 311.18 283.89 311.18"/><path class="cls-16" d="M351.44,311.19c-3,4.6-11.78,6.44-12.82,9.25-2.38,6.25-.41,11.06-11.86,11-1.29,0-5.39-.53-9-.56s-7.75.55-9.05.56c-11.45.08-9.48-4.73-11.86-11-1-2.81-9.82-4.65-12.82-9.25h0l0,0h0l0,0c9.54,8.11,17,3.27,23,3.35a4.28,4.28,0,0,1,1.66.33l.08,0a4.52,4.52,0,0,1,1.22.8l.66.62a4.8,4.8,0,0,0,1.46,1,12.56,12.56,0,0,0,5.05.95h1a12.56,12.56,0,0,0,5-.95,4.8,4.8,0,0,0,1.46-1l.66-.62a4.52,4.52,0,0,1,1.22-.8l.08,0a4.28,4.28,0,0,1,1.66-.33c6-.08,13.4,4.73,22.89-3.28l.07,0Z"/><path class="cls-17" d="M347.5,312.22a14.48,14.48,0,0,0,3.94-1l-.12.1-.07,0c-9.49,8-16.88,3.2-22.89,3.28a4.28,4.28,0,0,0-1.66.33l-.08,0a4.52,4.52,0,0,0-1.22.8l-.66.62a4.8,4.8,0,0,1-1.46,1,12.56,12.56,0,0,1-5,.95h-1a12.56,12.56,0,0,1-5.05-.95,4.8,4.8,0,0,1-1.46-1l-.66-.62a4.52,4.52,0,0,0-1.22-.8l-.08,0a4.28,4.28,0,0,0-1.66-.33c-6-.08-13.45,4.76-23-3.35l0,0h0l0,0h0a14.28,14.28,0,0,0,3.95,1c2.56.32,6,.34,12-4.15,3.72-2.81,5.35-4.14,7.22-4,2.65-.14,5.13,2.24,10,3,.1,0,.32,0,.57,0s.46,0,.56,0c4.91-.71,7.38-3.09,10-3,1.87-.1,3.5,1.23,7.22,4C341.49,312.56,345,312.54,347.5,312.22Z"/><polygon class="cls-14" points="351.36 311.19 351.36 311.19 351.36 311.19 351.36 311.19"/><path class="cls-2" d="M563.68,108C519.4,18.37,458.86,32.1,397.4,10.27,356.67-4.2,280-2.4,246.31,9.57c-61.46,21.83-130.89,9-175.16,98.7-43.53,88.15-84.55,156.62-67,165.4s95.72,35.21,112.63,44c49.66,25.7,109.17,29.11,86.53-22.34,26.34-109.86,30.13-109,31.45-104.1C240,210.6,241,202.52,318,202.52c79.1,0,73.76,7.14,79-12.26,1.32-4.89,22.27,35.35,34.11,103.7-15.91,30.86-17.72,80.8,36.82,49.55,14.7-12.11,145.17-61.28,162.77-70.07S607.2,196.19,563.68,108Z"/><path class="cls-18" d="M223.48,333c0-.51-.1-1-.18-1.56-1.7-12.07-11.35-26.95-16.57-34.29-.75-1-1.4-1.93-1.93-2.64h0l-.31-.42,0,0a1.39,1.39,0,0,0-2.21,0c-5,6.71-25.42,35.19-17.14,48.63,2.58,4.2,8,6.93,17.48,7.07h1.3C219.75,349.58,224.25,342.3,223.48,333ZM192,316.5c3-7,8.09-13.94,10.32-16.79a1.38,1.38,0,0,1,2.18,0c.39.5.88,1.13,1.42,1.87a80,80,0,0,1,8.64,14.32h0c2.71,6.13,3.85,12.39,0,16-2,1.92-5.46,3.1-10.78,3.15h-.87c-14.93-.21-14.78-9.42-10.9-18.56Z"/><ellipse class="cls-19" cx="203.47" cy="324.5" rx="14.13" ry="13.8"/><path class="cls-18" d="M451.39,333q-.08-.76-.18-1.56c-1.7-12.07-11.35-26.95-16.57-34.29-.75-1-1.4-1.93-1.93-2.64h0l-.31-.42,0,0a1.39,1.39,0,0,0-2.21,0c-5.05,6.71-25.42,35.19-17.14,48.63,2.58,4.2,8,6.93,17.48,7.07h1.3C447.66,349.58,452.16,342.3,451.39,333ZM419.86,316.5c3-7,8.09-13.94,10.32-16.79a1.38,1.38,0,0,1,2.18,0c.39.5.88,1.13,1.42,1.87a80,80,0,0,1,8.64,14.32h0c2.71,6.13,3.85,12.39,0,16-2,1.92-5.46,3.1-10.78,3.15h-.87c-14.93-.21-14.78-9.42-10.9-18.56Z"/><ellipse class="cls-19" cx="431.38" cy="324.5" rx="14.13" ry="13.8"/></g></g></svg>