<?xml version="1.0" encoding="utf-8"?>
<!-- Generator: Adobe Illustrator 24.1.1, SVG Export Plug-In . SVG Version: 6.00 Build 0)  -->
<svg version="1.1" id="a9f4de0d-8fd4-4a3a-b94d-ae25c5698378"
	 xmlns="http://www.w3.org/2000/svg" xmlns:xlink="http://www.w3.org/1999/xlink" x="0px" y="0px" viewBox="0 0 192 192"
	 style="enable-background:new 0 0 192 192;" xml:space="preserve">
<style type="text/css">
	.st0{fill:#FFFFFF;stroke:#3D1412;stroke-miterlimit:10;}
</style>
<path class="st0" d="M156,98.4c0,5.5-4.5,10-10,10h-37.6V146c0,5.5-4.5,10-10,10h-4.8c-5.5,0-10-4.5-10-10v-37.6H46
	c-5.5,0-10-4.5-10-10v-4.8c0-5.5,4.5-10,10-10h37.6V46c0-5.5,4.5-10,10-10h4.8c5.5,0,10,4.5,10,10v37.6H146c5.5,0,10,4.5,10,10V98.4
	z"/>
</svg>
