<svg id="aa319092-9499-43cd-a7d7-b7be78ac06da" data-name="Layer 10" xmlns="http://www.w3.org/2000/svg" viewBox="0 0 192 192"><defs><style>.a37dfc71-c7f8-4765-ac62-dc6f38079ae1{fill:#3d1412;}.e7fdabd6-4c71-47a5-b809-c3fb097284f0{fill:none;stroke:#3d1412;stroke-miterlimit:10;stroke-width:4px;}</style></defs><title>Icons dashboard</title><path class="a37dfc71-c7f8-4765-ac62-dc6f38079ae1" d="M160.1,40.16H77.18a10,10,0,0,0-10,10l.07,12.29a1.83,1.83,0,0,0,1.69,1.84c8.94.63,18,4,19.79,7.59s1.66,15.89-3.29,22.62a1.83,1.83,0,0,0,.66,2.71c11.59,6,16.78,11.38,18.3,25.08a1.85,1.85,0,0,0,1.83,1.63l55.72.15a10,10,0,0,0,10-10V52A11.88,11.88,0,0,0,160.1,40.16Z"/><path class="a37dfc71-c7f8-4765-ac62-dc6f38079ae1" d="M76.84,97.92a4.77,4.77,0,0,1-1.08-6.3c3.94-6.23,5.42-12.86,2.71-15.4-6.4-6-35.42-6.82-44.2,0-2.89,2.25-1.37,9,2.69,15.31a4.75,4.75,0,0,1-1.09,6.32c-9.53,7.31-15.78,19.57-15.78,33.47,0,22.39,16.22,40.54,36.22,40.54s36.23-18.15,36.23-40.54C92.54,117.46,86.32,105.23,76.84,97.92Z"/><path class="e7fdabd6-4c71-47a5-b809-c3fb097284f0" d="M84.74,40.71c0-12.13,28.11-14,35.25-16.58,7.89,3.93,36.45,4.33,36.45,16.31"/><ellipse class="a37dfc71-c7f8-4765-ac62-dc6f38079ae1" cx="120.6" cy="24.35" rx="4.35" ry="4.23"/><path class="e7fdabd6-4c71-47a5-b809-c3fb097284f0" d="M84.74,40.71C84.74,28.58,114.2,28,120,24.13"/></svg>