<svg id="ea705ac6-fcfd-49b2-9fe8-bd7df0d33d1a" data-name="Layer 10" xmlns="http://www.w3.org/2000/svg" viewBox="0 0 192 192"><defs><style>.a3c12177-8118-4f09-bc32-93c614836ad0{fill:#3d1412;}</style></defs><title>Icons dashboard</title><path class="a3c12177-8118-4f09-bc32-93c614836ad0" d="M138.23,131.64l-51.38.1c-5.5,0-10,3.38-10,7.47h0c0,4.1,4.53,7.44,10,7.43l51.37-.11c5.5,0,10-3.37,10-7.47h0C148.24,135,143.73,131.63,138.23,131.64Z"/><path class="a3c12177-8118-4f09-bc32-93c614836ad0" d="M114.85,78.4c-8.91,11.16-34,42.15-43.75,54.43-3.07,3.82-9.74,3.59-14.83-.5l-.19-.15c-5.09-4.09-6.75-10.56-3.68-14.38L96.15,63.37C106.92,72.06,107.52,72.53,114.85,78.4Z"/><path class="a3c12177-8118-4f09-bc32-93c614836ad0" d="M99.5,58.87c8.91-11.16-1,1.5,8.67-10.78,3.06-3.82,9.74-3.59,14.83.5l.19.15c5.09,4.09,6.74,10.56,3.68,14.38-14.58,18.14,5.91-7.36-8.67,10.78C107.43,65.21,106.83,64.74,99.5,58.87Z"/><path class="a3c12177-8118-4f09-bc32-93c614836ad0" d="M50.48,122.46a2.35,2.35,0,0,1,3.73-1.16l6.47,5.21,6.48,5.2a2.35,2.35,0,0,1-.33,3.89l-10.64,5.93-8.64,4.8a2.35,2.35,0,0,1-3.4-2.73L47,134.13Z"/></svg>