<?xml version="1.0" encoding="utf-8"?>
<!-- Generator: Adobe Illustrator 24.1.1, SVG Export Plug-In . SVG Version: 6.00 Build 0)  -->
<svg version="1.1" id="b77b414d-56ba-4b36-9227-21896361dc5b"
	 xmlns="http://www.w3.org/2000/svg" xmlns:xlink="http://www.w3.org/1999/xlink" x="0px" y="0px" viewBox="0 0 192 192"
	 style="enable-background:new 0 0 192 192;" xml:space="preserve">
<style type="text/css">
	.st0{fill:#1CBCD1;}
	.st1{fill:#FFFFFF;stroke:#3D1412;stroke-miterlimit:10;}
</style>
<path class="st0" d="M123.6,67L123.6,67z"/>
<path class="st1" d="M108,48.1c3.1-3.8,9.7-3.6,14.8,0.5l0.2,0.2c5.1,4.1,6.8,10.6,3.7,14.4l-4.9,6.1l-0.2,0.2l-0.3,0.4l-0.1,0.2
	l0,0l0.1-0.2l0.3-0.4l0.2-0.2l1.2-1.4l-4.9,6.1c-10.8-8.7-11.4-9.2-18.7-15C108.3,47.7,98.3,60.4,108,48.1z M67.2,135.2
	c-0.1,0.1-0.3,0.3-0.5,0.4L56,141.5l-8.6,4.8c-1.1,0.6-2.6,0.2-3.2-1c-0.3-0.5-0.4-1.2-0.2-1.8l2.8-9.5l3.5-11.7
	c0.1-0.3,0.2-0.6,0.4-0.8c0.1-1.4,0.6-2.8,1.5-3.9C66.8,99.7,81.4,81.5,96,63.4c10.8,8.7,11.4,9.2,18.7,15
	c-8.9,11.2-34,42.2-43.8,54.4C70,134,68.7,134.8,67.2,135.2z M138.1,146.5l-51.4,0.1c-5.5,0-10-3.3-10-7.4s4.5-7.5,10-7.5l51.4-0.1
	c5.5,0,10,3.3,10,7.4S143.6,146.5,138.1,146.5z"/>
<path class="st0" d="M123.5,67.2l-0.3,0.4L123.5,67.2z"/>
</svg>
