<svg id="Layer_1" data-name="Layer 1" xmlns="http://www.w3.org/2000/svg" viewBox="0 0 36 36"><defs><style>.cls-1{fill:#36150e;}</style></defs><title>icons2</title><path class="cls-1" d="M32.36,17.93A1.85,1.85,0,0,0,31.12,17a1.42,1.42,0,0,0,.12-.25,1.42,1.42,0,0,0-.31-1.25,4.62,4.62,0,0,1-.74-2.75v-.19a4.62,4.62,0,0,1,.74-2.75,1.39,1.39,0,0,0,.31-1.25,1.42,1.42,0,0,0-1.59-.81,1.25,1.25,0,0,0-.44.13,1.21,1.21,0,0,0,.16-.44A1.25,1.25,0,0,0,28.48,6a1.76,1.76,0,0,0-1.37.27,5.78,5.78,0,0,1-3,.68h-.21a5.76,5.76,0,0,1-3-.68A1.76,1.76,0,0,0,19.47,6a1.08,1.08,0,0,0-.28.11A1.8,1.8,0,0,0,18.14,5h-.22a1.83,1.83,0,0,0-1.05,1.14A1,1,0,0,0,16.6,6a1.76,1.76,0,0,0-1.37.27,5.78,5.78,0,0,1-3,.68H12a5.78,5.78,0,0,1-3-.68A1.76,1.76,0,0,0,7.59,6,1.25,1.25,0,0,0,6.7,7.42a1.12,1.12,0,0,0,.13.39,1.36,1.36,0,0,0-.47-.14,1.42,1.42,0,0,0-1.6.81,1.42,1.42,0,0,0,.31,1.25,4.62,4.62,0,0,1,.74,2.75v.2a4.61,4.61,0,0,1-.74,2.74,1.42,1.42,0,0,0-.31,1.25.85.85,0,0,0,.13.25,1.92,1.92,0,0,0-1.25.95.14.14,0,0,0,0,.11.12.12,0,0,0,0,.1,1.87,1.87,0,0,0,1.25,1,.85.85,0,0,0-.13.25,1.42,1.42,0,0,0,.31,1.25,4.56,4.56,0,0,1,.74,2.74v.2a4.62,4.62,0,0,1-.74,2.75,1.4,1.4,0,0,0-.31,1.24,1.41,1.41,0,0,0,1.6.81,1.5,1.5,0,0,0,.44-.12,1.07,1.07,0,0,0-.17.44A1.25,1.25,0,0,0,7.52,30a1.8,1.8,0,0,0,1.38-.28,5.83,5.83,0,0,1,3-.67h.22a5.86,5.86,0,0,1,3,.67,1.77,1.77,0,0,0,1.37.28,1,1,0,0,0,.28-.11,1.79,1.79,0,0,0,1.05,1.13.14.14,0,0,0,.11,0,.14.14,0,0,0,.11,0,1.77,1.77,0,0,0,1.05-1.13,1,1,0,0,0,.27.11,1.8,1.8,0,0,0,1.38-.28,5.83,5.83,0,0,1,3-.67H24a5.86,5.86,0,0,1,3,.67,1.77,1.77,0,0,0,1.37.28,1.23,1.23,0,0,0,.89-1.44,1.06,1.06,0,0,0-.14-.4,1.23,1.23,0,0,0,.49.15,1.25,1.25,0,0,0,1.28-2.06,4.62,4.62,0,0,1-.74-2.75v-.2a4.56,4.56,0,0,1,.74-2.74,1.39,1.39,0,0,0,.31-1.25.85.85,0,0,0-.13-.25,1.9,1.9,0,0,0,1.25-1,.51.51,0,0,0,0-.2Zm-5.94,7.45H9.65V10.71H26.42Z"/><path class="cls-1" d="M14.26,19c1,1.64-.62,1.33-.8,3.23s3.41-.18,3.9-.66,1.23-2,4.11-.75,2-1.55,1.55-2.13c-.62-.9-.18-1,.44-2.16s-.22-2.22-1.64-1.77-2.92-1-2.92-1-1.06-.53-1.41.45-1.11,1.41-3,.57S13.29,17.39,14.26,19Z"/><path class="cls-1" d="M21.87,11.32c-1.21-.12-1.33,2-1.33,2C21.68,14,23.07,11.44,21.87,11.32Z"/><path class="cls-1" d="M18.85,21.68s.41,4.85,2.77,1.94S18.85,21.68,18.85,21.68Z"/><path class="cls-1" d="M13.59,13.8a.78.78,0,0,0,.5-.45c.86-.69-.74-2.29-2.77-1.66a.53.53,0,0,0-.2.28h0C10.76,12.47,12.14,14.34,13.59,13.8Z"/></svg>