<svg id="Layer_1" data-name="Layer 1" xmlns="http://www.w3.org/2000/svg" viewBox="0 0 36 36"><defs><style>.cls-1{fill:#36150e;}</style></defs><title>icons2</title><path class="cls-1" d="M34.14,18.89c-.61-1.55-4.74-.88-8.09,0l0,.08c.14.15.27.31.4.48-.13-.17-.26-.33-.4-.48h0a8.07,8.07,0,0,0-14,5.49v0h0c-5.1,3-5.43,4.6-5.16,5.27s1.14,1,2.59,1A16.11,16.11,0,0,0,12,30.48c.71-.11,1.49-.27,2.3-.46a8.07,8.07,0,0,0,13.88-5.4,57.79,57.79,0,0,1-6.38,3A56.61,56.61,0,0,1,14.34,30a5.7,5.7,0,0,1-.56-.64L13.49,29a6.66,6.66,0,0,1-.42-.69c-1.58.31-2.54.32-2.75.13.06-.13.4-.6,2.08-1.73a8.07,8.07,0,0,0,.67,1.6,45.49,45.49,0,0,0,7.83-2.42,47.36,47.36,0,0,0,7-3.37l.12-.07a7.64,7.64,0,0,0-.71-1.83h0a1.31,1.31,0,0,1,.27-.06c1.24-.27,2.66-.57,2.79-.15,0,.14-.35.81-2.35,2a6.71,6.71,0,0,1,.15.78c0,.18.05.37.07.55s0,.43,0,.65c0,.06,0,.14,0,.2,1-.55,1.92-1.11,2.73-1.66C33.46,21.25,34.54,19.88,34.14,18.89Zm-22,5.49h0l-.06,0Zm-2.33,3.4a1.54,1.54,0,0,0-.22.32A1.54,1.54,0,0,1,9.86,27.78Zm.17-.19a12.11,12.11,0,0,1,1.71-1.35A12.11,12.11,0,0,0,10,27.59Zm16.21-8,.15,0-.15,0Zm.46.51.12.61h0Zm.16-.16-.19,0h0l.19,0,.15.26Z"/><circle class="cls-1" cx="16.71" cy="6.31" r="1.13"/><path class="cls-1" d="M28,14.67a1.73,1.73,0,1,0-1.73-1.73A1.73,1.73,0,0,0,28,14.67Z"/><path class="cls-1" d="M11.6,15a3.25,3.25,0,1,0-3.25,3.24A3.24,3.24,0,0,0,11.6,15Z"/></svg>