<svg id="Layer_1" data-name="Layer 1" xmlns="http://www.w3.org/2000/svg" viewBox="0 0 36 36"><defs><style>.cls-1{fill:#36150e;}</style></defs><title>icons2</title><path class="cls-1" d="M28.73,7.67H21.92a1.8,1.8,0,0,0-1.8,1.79v.73H12.37v-.4a1.14,1.14,0,0,0-1.13-1.13H9.42A1.14,1.14,0,0,0,8.29,9.79v.4H7.35A1.83,1.83,0,0,0,5.53,12V25.79a1.83,1.83,0,0,0,1.82,1.82H28.7a1.83,1.83,0,0,0,1.83-1.82V9.46A1.8,1.8,0,0,0,28.73,7.67ZM18,25.65a6.75,6.75,0,1,1,6.75-6.75A6.75,6.75,0,0,1,18,25.65ZM22.11,8.33h6.66a.91.91,0,1,1,0,1.81H22.11a.91.91,0,1,1,0-1.81Z"/><circle class="cls-1" cx="18.03" cy="18.9" r="4.87"/></svg>