<svg id="Layer_1" data-name="Layer 1" xmlns="http://www.w3.org/2000/svg" viewBox="0 0 36 36"><defs><style>.cls-1{fill:#36150e;}</style></defs><title>icons2</title><path class="cls-1" d="M21.68,21.77A17.53,17.53,0,0,0,17.9,9.2,17.64,17.64,0,0,0,14,21.38,17.63,17.63,0,0,0,2.72,15.5s.78,13,14.68,15.19l-1-1a.2.2,0,0,1-.11,0l-5-1.5a.32.32,0,0,1-.22-.4.32.32,0,0,1,.4-.21l4,1.21L13,26.29a.41.41,0,0,1-.11,0l-4-1.14a.32.32,0,0,1-.21-.4.31.31,0,0,1,.39-.21l3,.86L9.63,22.92h-.1l-2.9-.78a.31.31,0,0,1-.22-.39.32.32,0,0,1,.38-.23l2,.54-1.9-1.9a.32.32,0,0,1,.45-.45l.78.78-.47-1.75a.31.31,0,0,1,.22-.39.32.32,0,0,1,.39.23L9,21.39l2.44,2.45-.8-2.78a.32.32,0,0,1,.22-.39.31.31,0,0,1,.39.22l1.12,3.87,2.43,2.43-1.15-3.81a.32.32,0,0,1,.22-.39.31.31,0,0,1,.39.21l0,.13.75,2.49.7,2.32,1,1,1.14,1.14v0l.14.14.09-.08.35-.35,4-4.05a.21.21,0,0,1,0-.11l1.14-3.95a.32.32,0,0,1,.39-.22.32.32,0,0,1,.22.4l-.87,3,2.49-2.48a.41.41,0,0,1,0-.11l.78-2.89a.33.33,0,0,1,.39-.23.31.31,0,0,1,.22.39l-.53,2,1.9-1.9a.31.31,0,0,1,.45,0,.31.31,0,0,1,0,.44l-.79.79L30,20.54a.3.3,0,0,1,.38.22.31.31,0,0,1-.22.39l-2.81.76-2.45,2.44,2.77-.8a.32.32,0,1,1,.18.61L24,25.28l-2.42,2.43,3.8-1.15a.32.32,0,1,1,.18.61l-4.93,1.48-2.11,2.11A17,17,0,0,0,33.28,15.63,17.57,17.57,0,0,0,21.68,21.77Zm-3.82,6.62a.31.31,0,0,1-.32-.31v-4a.2.2,0,0,1-.08-.08l-2-3.6a.31.31,0,1,1,.55-.3l1.51,2.73V19.33l-.07-.07L16,16.66a.31.31,0,0,1,.12-.43.31.31,0,0,1,.43.11l1,1.77v-5.4a.32.32,0,1,1,.63,0v3.83L19.08,15a.31.31,0,0,1,.43-.12.31.31,0,0,1,.12.43l-1.46,2.53v3.46l1.4-2.53a.32.32,0,1,1,.55.31l-1.95,3.53V26l1.89-3.5a.31.31,0,0,1,.42-.13.31.31,0,0,1,.13.43l-2.44,4.54v.73A.31.31,0,0,1,17.86,28.39Z"/></svg>