<?xml version="1.0" encoding="utf-8"?>
<!-- Generator: Adobe Illustrator 24.1.1, SVG Export Plug-In . SVG Version: 6.00 Build 0)  -->
<svg version="1.1" id="Layer_1" xmlns="http://www.w3.org/2000/svg" xmlns:xlink="http://www.w3.org/1999/xlink" x="0px" y="0px"
	 viewBox="0 0 282.9 282.9" style="enable-background:new 0 0 282.9 282.9;" xml:space="preserve">
<style type="text/css">
	.st0{fill:none;}
	.st1{fill:#3C1412;}
</style>
<path class="st0" d="M183.1,131.7c-3.5,0-6.2,2.8-6.3,6.3c0,3.5,2.8,6.3,6.2,6.3c3.5,0,6.3-2.8,6.3-6.2
	C189.3,134.6,186.5,131.8,183.1,131.7z"/>
<path class="st0" d="M182.9,117.3c3.4,0.1,6.2-2.7,6.3-6.1c0.1-3.4-2.7-6.2-6.1-6.3c-3.4-0.1-6.2,2.6-6.3,6
	C176.7,114.3,179.4,117.2,182.9,117.3C182.8,117.3,182.9,117.3,182.9,117.3z"/>
<path class="st0" d="M169.7,118.2c-3.5,0-6.3,2.7-6.4,6.2c0.1,3.5,2.9,6.2,6.4,6.2c3.3-0.1,6-2.6,6.1-5.9
	C175.9,121.2,173.2,118.3,169.7,118.2z"/>
<path class="st0" d="M196.5,118.2c-3.4,0.1-6.1,2.8-6.2,6.2c0,3.4,2.7,6.3,6.1,6.3c0,0,0,0,0.1,0c3.4,0,6.2-2.7,6.3-6.1
	C202.8,121.2,200,118.3,196.5,118.2z"/>
<path class="st0" d="M120.6,128.6c1.6-1.8,2-4.4,0.9-6.6c-1-2.3-3.3-3.8-5.9-3.7c-2.3,0-4.6,0-7,0c0-2.4,0-4.6,0-6.8
	c-0.1-4-2.8-6.7-6.4-6.6s-6.1,2.8-6.1,6.7v6.6c-2.5,0-4.8,0-7.1,0c-3,0-5.6,2.1-6.2,5c-0.6,2.7,0.8,5.5,3.3,6.7
	c1,0.4,2.1,0.7,3.2,0.7c2.3,0.1,4.5,0,6.9,0v3.7c0,1.2,0,2.4,0,3.6c0,2.6,1.7,5,4.2,5.8c3.3,1.1,6.8-0.6,8-3.8
	c0.2-0.7,0.4-1.4,0.4-2.2c0.1-2.3,0-4.7,0-7.1h7.1C117.6,130.8,119.4,130,120.6,128.6z"/>
<path class="st1" d="M268.4,165.8c-4.7-19.9-9.2-39.9-14.1-59.7c-4-16.5-13.5-28.9-28.9-36.4c-7.2-3.4-15.1-5.1-23.1-4.9
	c-40.3,0-80.5-0.2-120.8,0.1c-24,0.2-44.8,16.9-50.2,40.3c-5.5,24.3-11.4,48.5-17.1,72.8c-4,16.7,4.4,32.7,20.6,38.3
	c12.7,4.4,25.3,0.7,32.4-11.4c4-6.8,8.2-13.5,12.1-20.3c2.5-4.7,7.5-7.5,12.8-7.2c33.6,0,67.2,0,100.9,0c5.4-0.3,10.4,2.6,13,7.3
	c3.9,6.6,8,13,11.7,19.6c7.6,13.4,22,16.8,35.3,10.9c10.6-4.7,16.7-13,18.7-24.4c0.1-0.3,0.2-0.6,0.4-0.8v-7.6
	C270.9,176.8,269.7,171.3,268.4,165.8z M101.6,128.5c0,3,0.1,5.8,0,8.6c0.1,4.2-3.3,7.6-7.4,7.7c-0.9,0-1.8-0.1-2.6-0.4
	c-3.1-1-5.1-3.8-5.1-7.1c0-1.4,0-2.9,0-4.3v-4.5c-2.8,0-5.6,0.1-8.3,0c-1.3,0-2.6-0.3-3.8-0.8c-3.1-1.5-4.7-4.9-4-8.2
	c0.7-3.6,3.9-6.1,7.5-6c2.8,0,5.5,0,8.6,0v-8c0-4.7,3-8,7.3-8.1c4.3-0.1,7.6,3.1,7.8,7.9c0.1,2.6,0,5.3,0,8.2c2.9,0,5.6,0,8.5,0
	c3.1-0.1,5.9,1.7,7.1,4.5c1.3,2.6,0.8,5.8-1.1,8c-1.4,1.7-3.6,2.7-5.8,2.6L101.6,128.5z M135.6,164.2c0,2.3-1.8,4.1-4.1,4.1h-16
	c-2.3,0-4.1-1.8-4.1-4.1l0,0c0-2.3,1.8-4.1,4.1-4.1h16C133.7,160.1,135.5,161.9,135.6,164.2L135.6,164.2z M174.2,164.2
	c0,2.3-1.8,4.1-4.1,4.1h-16.1c-2.3,0-4.1-1.8-4.1-4.1l0,0c0-2.3,1.8-4.1,4.1-4.1h16c2.3,0,4.1,1.8,4.1,4.1H174.2z M175.3,128.5
	c-4.2,0-7.5-3.4-7.5-7.6c0,0,0,0,0,0c-0.1-4.2,3.3-7.6,7.4-7.7c4.2-0.1,7.6,3.3,7.7,7.4c0,0.2,0,0.4,0,0.5c-0.1,4.1-3.6,7.4-7.7,7.3
	H175.3z M191.7,97.3c4.1,0.1,7.4,3.6,7.3,7.7c-0.1,4.1-3.6,7.4-7.7,7.3c-4.1-0.1-7.4-3.6-7.3-7.7c0,0,0,0,0,0
	c0.2-4.1,3.5-7.3,7.6-7.2L191.7,97.3z M191.7,144.8c-4.2,0.1-7.7-3.1-7.8-7.3c0-0.1,0-0.1,0-0.2c0-4.2,3.4-7.6,7.6-7.5
	c4.2,0,7.6,3.4,7.5,7.6c-0.1,4.1-3.4,7.4-7.5,7.4L191.7,144.8z M207.8,128.5c-4.2,0-7.5-3.4-7.5-7.5c0,0,0-0.1,0-0.1
	c0.1-4.1,3.4-7.4,7.5-7.5c4.2,0.1,7.6,3.5,7.6,7.8c-0.2,4.2-3.6,7.4-7.8,7.3H207.8z"/>
</svg>
