<svg id="e61db585-af41-449c-b31f-70fc97d661b3" data-name="Layer 10" xmlns="http://www.w3.org/2000/svg" viewBox="0 0 192 192"><defs><style>.bc6d3395-1b61-4529-82a5-955bb25f59eb{fill:#3d1412;}</style></defs><title>Icons dashboard</title><path class="bc6d3395-1b61-4529-82a5-955bb25f59eb" d="M169.1,63.36c4.4,2.68,1.79,7.88-4,7.88H26.54c-5.75,0-8.36-5.2-4-7.88L52.74,45,91.88,21.14a8,8,0,0,1,7.92,0L138.94,45Z"/><path class="bc6d3395-1b61-4529-82a5-955bb25f59eb" d="M168.58,80.28c4.4,2.57,1.79,7.55-4,7.55H26c-5.75,0-8.37-5-4-7.55L52.22,62.67,91.36,39.83a8.3,8.3,0,0,1,7.92,0l39.14,22.84Z"/><path class="bc6d3395-1b61-4529-82a5-955bb25f59eb" d="M147.2,156.33c2.52,0,4.59-3.14,4.59-7V90.82c0-3.84-2.07-7-4.59-7H132.37c2.47.09,4.48,3.19,4.48,7v58.52c0,3.85-.38,7-2.9,7"/><path class="bc6d3395-1b61-4529-82a5-955bb25f59eb" d="M45.68,156.41c-2.53,0-4.59-3.15-4.59-7V90.9c0-3.85,2.06-7,4.59-7H60.51C58,84,56,87.1,56,90.89v58.52c0,3.84.37,7,2.9,7"/><path class="bc6d3395-1b61-4529-82a5-955bb25f59eb" d="M119.2,156.46c2.53,0,4.59-3.15,4.59-7V91c0-3.85-2.06-7-4.59-7H104.37c2.48.09,4.48,3.19,4.48,7v58.52c0,3.85-.37,7-2.9,7"/><path class="bc6d3395-1b61-4529-82a5-955bb25f59eb" d="M72.74,156.54c-2.52,0-4.59-3.15-4.59-7V91c0-3.85,2.07-7,4.59-7H87.57c-2.47.09-4.48,3.2-4.48,7v58.51c0,3.85.38,7.05,2.9,7.05"/><rect class="bc6d3395-1b61-4529-82a5-955bb25f59eb" x="20.03" y="162.9" width="150.88" height="9.3" rx="4.65"/><rect class="bc6d3395-1b61-4529-82a5-955bb25f59eb" x="34.94" y="155.86" width="120" height="7.4" rx="3.7"/></svg>